<?xml version="1.0" standalone="no"?>
<!DOCTYPE svg PUBLIC "-//W3C//DTD SVG 1.1//EN" "http://www.w3.org/Graphics/SVG/1.1/DTD/svg11.dtd" >
<!--
2013-9-30: Created.
-->
<svg>
<metadata>
Created by iconfont
</metadata>
<defs>

<font id="iceuifont" horiz-adv-x="1024" >
  <font-face
    font-family="iceuifont"
    font-weight="500"
    font-stretch="normal"
    units-per-em="1024"
    ascent="896"
    descent="-128"
  />
    <missing-glyph />
    
    <glyph glyph-name="choice" unicode="&#58996;" d="M957.90909131-66c-4.09090869 6.13636347-8.18181826 14.31818174-14.31818262 18.40909131C655.18181826 240.81818174 366.77272695 529.22727305 78.36363652 815.59090869 74.27272695 821.72727305 68.13636347 825.81818174 62 829.90909131 68.13636347 831.95454521 74.27272695 834 80.40909131 834H962v-881.59090869c0-6.13636347-2.04545479-12.27272695-4.09090869-18.40909131zM679.72727305 426.95454521c57.27272695 57.27272695 114.54545479 114.54545479 171.81818174 169.77272784-6.13636347 8.18181826-14.31818174 16.36363653-24.54545479 30.68181826-49.09090869-51.13636347-96.13636347-100.22727305-145.22727305-149.31818262-28.63636347 28.63636347-55.22727305 55.22727305-79.77272695 81.81818262l-26.59090869-26.59090957c34.77272695-34.77272695 69.54545479-71.59090869 104.31818174-106.36363653z"  horiz-adv-x="1024" />

    
    <glyph glyph-name="folder-open" unicode="&#58888;" d="M956.5640852539063 582.5127111979167c-6.011524511718751 7.16454228515625-15.017118750000002 11.27295703125-24.708048046875003 11.27295703125l-30.078306738281245 0L901.7777304687501 685.5990188151042l0 0c0 9.934664062500001-8.053140234375 17.987804296875-17.987804296875 17.987804296875L385.34067529296874 703.5868231119791l-49.3558365234375 66.91463173828126c-3.02734775390625 5.66885654296875-8.996600390625 9.52903916015625-15.872438671875003 9.52903916015625L80.88719433593747 780.0304940104166c-3.9330333984374994 0-7.55937509765625-1.2762342773437498-10.519267675781249-3.417683203125-4.87829267578125-3.2171185546875-8.1017068359375-8.739374414062501-8.1017068359375-15.0198169921875l0-721.1598539062501c-1.10894853515625-9.084740625 1.4435208984374999-18.039969140625 7.129466015625-24.816874218749998 6.011524511718751-7.1636431640625 15.016218749999998-11.27205791015625 24.70714892578125-11.27205791015625l740.163969140625 0c17.890670214843748 0 34.35850458984375 13.91356669921875 37.49287939453126 31.677423046875l91.66135341796875 519.8385498046874C965.1316765625 565.565501139323 962.63227109375 575.2798146158855 956.5640852539063 582.5127111979167zM311.1985434570313 744.0557845377604l51.37316894531251-69.65057724609376c3.1190853515625-3.925838671875 7.554877734374999-6.1734146484375 12.1723470703125-6.63570087890625 0.7437955078125-0.09353671875 1.4956857421875-0.1582927734375 2.26466455078125-0.1582927734375l488.7924987304688 0 0-73.82554628906252L191.69296806640625 593.7856682291667c-17.8915693359375 0-34.359404589843756-13.914465820312499-37.4919802734375-31.676523046875L98.24092841796875 244.74761549479172 98.24092841796875 744.0557845377604 311.1985434570313 744.0557845377604zM836.3300046875001 42.27419274088538c-0.1483998046875-0.69073154296875-1.384161328125-1.8248625-2.1180638671875003-1.954374609375L98.72569970703125 40.319818131510374l90.90316757812501 515.5367660156251c0.150198046875 0.6979271484374999 1.4129419921875 1.8500458007812501 2.06320078125 1.95347548828125l735.5393041992188 0L836.3300046875001 42.27419274088538z"  horiz-adv-x="1027" />

    
    <glyph glyph-name="folder" unicode="&#58889;" d="M919.536 62.438999999999965h-815.072c-23.274 0-42.158 18.115-42.158 40.512v431.689h899.39v-431.692c0-22.394-18.884-40.509-42.158-40.509zM62.304 615.582v80.969c0 22.342 18.884 40.457 42.158 40.457h210.794l84.071-80.941h520.208c23.274 0 42.158-18.115 42.158-40.485v-40.457h-899.39v40.457z"  horiz-adv-x="1024" />

    
    <glyph glyph-name="minus" unicode="&#58890;" d="M141.97629866666665 417.323216l742.5808352 0 0-61.88301013333333-742.5808352 0 0 61.88301013333333Z"  horiz-adv-x="1024" />

    
    <glyph glyph-name="plus" unicode="&#58891;" d="M544 768L480 768 480 416 128 416 128 352 480 352 480 0 544 0 544 352 895.936 352 895.936 416 544 416Z"  horiz-adv-x="1024" />

    
    <glyph glyph-name="drag" unicode="&#58893;" d="M894.53 360.789l-112.127-112.127c-4.82-4.82-12.656-4.82-17.476 0l-17.501 17.501c-4.82 4.82-4.82 12.656 0 17.476l75.691 75.641h-286.397v-286.397l75.666 75.666c4.82 4.82 12.656 4.82 17.476 0l17.5-17.501c4.82-4.82 4.82-12.656 0-17.476l-112.127-112.127c-0.247 0.569-13.645-12.953-23.237-12.953s-22.197 13.522-23.211 12.978l-112.127 112.127c-4.82 4.82-4.82 12.656 0 17.476l17.501 17.501c4.82 4.82 12.656 4.82 17.476 0l75.641-75.691v286.397h-286.397l75.666-75.666c4.82-4.82 4.82-12.656 0-17.476l-17.501-17.501c-4.82-4.82-12.656-4.82-17.476 0l-112.127 112.127c0.569 0.247-12.953 13.645-12.953 23.237s13.522 22.197 12.978 23.211l112.127 112.127c4.82 4.82 12.656 4.82 17.476 0l17.501-17.501c4.82-4.82 4.82-12.656 0-17.476l-75.691-75.641h286.397v286.397l-75.666-75.666c-4.82-4.82-12.656-4.82-17.476 0l-17.5 17.501c-4.82 4.82-4.82 12.656 0 17.476l112.127 112.127c0.247-0.569 13.645 12.953 23.237 12.953s22.197-13.522 23.211-12.978l112.127-112.127c4.82-4.82 4.82-12.656 0-17.476l-17.501-17.501c-4.82-4.82-12.656-4.82-17.476 0l-75.641 75.691v-286.397h286.397l-75.666 75.666c-4.82 4.82-4.82 12.656 0 17.476l17.501 17.501c4.82 4.82 12.656 4.82 17.476 0l112.127-112.127c-0.569-0.247 12.953-13.645 12.953-23.237s-13.522-22.197-12.978-23.211z"  horiz-adv-x="1024" />

    
    <glyph glyph-name="drag-lr" unicode="&#58894;" d="M907.346 403.179l-148.971 149.38c-9.856 9.891-25.847 9.891-35.705 0-9.866-9.89-9.866-25.922 0-35.813l107.123-107.427h-635.589l107.124 107.427c9.866 9.891 9.866 25.923 0 35.812-9.856 9.891-25.847 9.891-35.705 0l-148.963-149.38c-5.264-5.272-7.499-12.273-7.155-19.175-0.344-6.91 1.892-13.911 7.155-19.183l148.963-149.387c9.857-9.882 25.848-9.882 35.705 0 9.866 9.891 9.866 25.921 0 35.811l-107.124 107.436h635.59l-107.123-107.436c-9.866-9.891-9.866-25.921 0-35.811 9.857-9.882 25.848-9.882 35.705 0l148.971 149.387c5.257 5.273 7.492 12.273 7.148 19.183 0.343 6.902-1.891 13.902-7.148 19.175z"  horiz-adv-x="1024" />

    
    <glyph glyph-name="drag-tb" unicode="&#58895;" d="M644.024 174.48199999999997l-106.843-106.549v632.135l106.843-106.542c9.836-9.812 25.78-9.812 35.617 0 9.836 9.803 9.836 25.707 0 35.512l-148.567 148.161c-5.243 5.228-12.207 7.451-19.078 7.102-6.864 0.351-13.827-1.874-19.071-7.102l-148.567-148.16c-9.836-9.804-9.836-25.708 0-35.512 9.829-9.812 25.78-9.812 35.617 0l106.844 106.542v-632.135l-106.844 106.548c-9.836 9.805-25.788 9.805-35.617 0-9.836-9.811-9.836-25.705 0-35.518l148.567-148.152c5.243-5.228 12.207-7.459 19.071-7.109 6.872-0.351 13.835 1.882 19.078 7.109l148.567 148.152c9.836 9.813 9.836 25.708 0 35.518-9.837 9.805-25.781 9.805-35.617 0z"  horiz-adv-x="1024" />

    
    <glyph glyph-name="check-line" unicode="&#58896;" d="M932.845 691.4970000000001l-524.537-528.329-292.683 290.579-57.863-58.287 349.083-346.569 582.401 586.602-56.403 56z"  horiz-adv-x="1024" />

    
    <glyph glyph-name="close-line" unicode="&#58897;" d="M816.961 20.56600000000003l-302.922 302.922-302.922-302.922-60.585 60.585 302.922 302.849-302.922 302.922 60.585 60.585 302.849-302.922 302.922 302.922 60.657-60.585-302.922-302.922 302.922-302.849-60.585-60.585z"  horiz-adv-x="1024" />

    
    <glyph glyph-name="switch-on" unicode="&#58898;" d="M737.404935 609.406119L286.591987 609.406119c-124.486998 0-225.404776-100.91418-225.404776-225.404776s100.917778-225.404776 225.404776-225.404776l450.812949 0c124.490396 0 225.404576 100.917778 225.404576 225.404776C962.809511 508.491938 861.891933 609.406119 737.404935 609.406119zM737.404935 178.63178400000004c-113.4215 0-205.366162 91.944462-205.366162 205.365962s91.948059 205.369559 205.366162 205.369559c113.425098 0 205.369559-91.948059 205.369559-205.369559S850.826436 178.63178400000004 737.404935 178.63178400000004z"  horiz-adv-x="1024" />

    
    <glyph glyph-name="switch-off" unicode="&#58899;" d="M61.187211 384.001343c0-124.486998 100.91418-225.404776 225.404776-225.404776l450.812949 0c124.486998 0 225.404576 100.91418 225.404576 225.404776s-100.917778 225.404776-225.404576 225.404776L286.591987 609.406119C162.104989 609.406119 61.187211 508.491938 61.187211 384.001343zM81.222427 383.99794499999996c0 113.4215 91.944462 205.369559 205.369559 205.369559 113.418103 0 205.366162-91.948059 205.366162-205.369559s-91.944462-205.365962-205.366162-205.365962S81.222427 270.576245 81.222427 383.99794499999996z"  horiz-adv-x="1024" />

    
    <glyph glyph-name="radio-on" unicode="&#58900;" d="M512 776.0070000000001c-216.142 0-392.007-175.862-392.007-392.007 0-216.167 175.838-392.007 392.007-392.007s392.007 175.838 392.007 392.007c0 216.142-175.838 392.007-392.007 392.007zM512 48.24300000000005c-185.147 0-335.757 150.638-335.757 335.757 0 185.147 150.608 335.757 335.757 335.757 185.12 0 335.757-150.608 335.757-335.757 0-185.12-150.638-335.757-335.757-335.757zM512 524.624c-77.54 0-140.626-63.083-140.626-140.624s63.083-140.626 140.626-140.626 140.626 63.083 140.626 140.626-63.085 140.624-140.626 140.624z"  horiz-adv-x="1024" />

    
    <glyph glyph-name="radio-off" unicode="&#58901;" d="M511.618 776.64c-216.847 0-393.218-176.37-393.218-393.218 0-216.842 176.37-393.213 393.218-393.213 216.844 0 393.214 176.37 393.214 393.213-0.001 216.848-176.371 393.218-393.214 393.218v0zM511.618 42.636999999999944c-187.905 0-340.79 152.88-340.79 340.784 0 187.906 152.884 340.79 340.79 340.79s340.785-152.884 340.785-340.79c0-187.904-152.88-340.784-340.785-340.784v0zM511.618 42.636999999999944z"  horiz-adv-x="1024" />

    
    <glyph glyph-name="checkbox-on" unicode="&#58902;" d="M790.092 731.615h-556.183c-38.238 0-69.523-31.285-69.523-69.523v-556.183c0-38.238 31.285-69.523 69.523-69.523h556.183c38.238 0 69.523 31.285 69.523 69.523v556.183c0 38.238-31.285 69.523-69.523 69.523zM440.391 194.89800000000002l-24.333 24.333-147.388 148.085 49.361 49.361 122.361-123.055 246.112 246.112 49.361-49.361-295.473-295.473z"  horiz-adv-x="1024" />

    
    <glyph glyph-name="checkbox-off" unicode="&#58903;" d="M199.147 662.092v0-556.183c0-18.771 15.295-34.762 34.762-34.762h556.183c18.771 0 34.762 15.295 34.762 34.762v556.183c0 18.771-15.295 34.762-34.762 34.762h-556.183c-19.466 0-34.762-15.295-34.762-34.762v0zM164.385 662.092c0 38.238 31.285 69.523 69.523 69.523h556.183c38.238 0 69.523-31.285 69.523-69.523v-556.183c0-38.238-31.285-69.523-69.523-69.523h-556.183c-38.238 0-69.523 31.285-69.523 69.523v556.183z"  horiz-adv-x="1024" />

    
    <glyph glyph-name="collect-on" unicode="&#58904;" d="M734.684732 261.65248799999995l52.769854-323.222519L510.976694 91.11339299999997 234.497779-61.56900800000005l52.772924 323.222519L64.381309 489.851816l308.1001 47.029106L510.976694 831.615621l138.501424-294.734698 308.09396-47.029106L734.684732 261.65248799999995z"  horiz-adv-x="1024" />

    
    <glyph glyph-name="collect-off" unicode="&#58905;" d="M234.274186-63.411982999999964l52.765761 324.0647L64.004221 489.207134l308.270992 47.114041 138.729621 295.592228 138.79409-295.535947 308.328297-47.058782L735.143685 260.763235l52.881394-324.05856-276.902564 153.004743L234.274186-63.411982999999964zM130.862955 466.829474l190.592826-195.308221-44.715411-274.624684 234.376005 129.630383 234.4241-129.532145-44.815695 274.628778 190.542684 195.305151-263.325337 40.190351L511.015068 756.0946 394.139174 507.06792 130.862955 466.829474z"  horiz-adv-x="1024" />

    
    <glyph glyph-name="arrow-round-b" unicode="&#58906;" d="M926.476 384c0 229.361-186.018 414.476-414.476 414.476s-414.476-186.018-414.476-414.476 186.018-414.476 414.476-414.476 414.476 185.115 414.476 414.476zM489.425 237.71400000000006l-206.787 205.883c-6.321 6.321-9.03 14.448-9.03 22.575s2.709 16.254 9.03 22.575c12.642 12.642 32.508 12.642 45.15 0l184.212-184.212 181.503 183.309c12.642 12.642 32.508 12.642 44.246 0 12.642-12.642 12.642-32.508 0-44.246l-204.078-205.884c-6.321-6.321-13.545-9.03-22.575-9.03-7.224 0-15.351 2.709-21.672 9.03z"  horiz-adv-x="1024" />

    
    <glyph glyph-name="arrow-round-r" unicode="&#58907;" d="M512 798.476c-229.361 0-414.476-186.018-414.476-414.476s186.018-414.476 414.476-414.476 414.476 186.018 414.476 414.476-185.115 414.476-414.476 414.476zM658.286 361.42499999999995l-205.883-206.787c-6.321-6.321-14.448-9.03-22.575-9.03s-16.254 2.709-22.575 9.03c-12.642 12.642-12.642 32.508 0 45.15l184.212 184.212-183.309 181.503c-12.642 12.642-12.642 32.508 0 44.246 12.642 12.642 32.508 12.642 44.246 0l205.884-204.078c6.321-6.321 9.03-13.545 9.03-22.575 0-7.224-2.709-15.351-9.03-21.672z"  horiz-adv-x="1024" />

    
    <glyph glyph-name="arrow-round-t" unicode="&#58908;" d="M97.524 384c0-229.361 186.018-414.476 414.476-414.476s414.476 186.018 414.476 414.476-186.018 414.476-414.476 414.476-414.476-185.115-414.476-414.476zM534.575 530.2860000000001l206.787-205.883c6.321-6.321 9.03-14.448 9.03-22.575s-2.709-16.254-9.03-22.575c-12.642-12.642-32.508-12.642-45.15 0l-184.212 184.212-181.503-183.309c-12.642-12.642-32.508-12.642-44.246 0-12.642 12.642-12.642 32.508 0 44.246l204.078 205.884c6.321 6.321 13.545 9.03 22.575 9.03 7.224 0 15.351-2.709 21.672-9.03z"  horiz-adv-x="1024" />

    
    <glyph glyph-name="arrow-round-l" unicode="&#58909;" d="M512-30.476c229.361 0 414.476 186.018 414.476 414.476s-186.018 414.476-414.476 414.476-414.476-186.018-414.476-414.476 185.115-414.476 414.476-414.476zM365.714 406.575l205.883 206.787c6.321 6.321 14.448 9.03 22.575 9.03s16.254-2.709 22.575-9.03c12.642-12.642 12.642-32.508 0-45.15l-184.212-184.212 183.309-181.503c12.642-12.642 12.642-32.508 0-44.246-12.642-12.642-32.508-12.642-44.246 0l-205.884 204.078c-6.321 6.321-9.03 13.545-9.03 22.575 0 7.224 2.709 15.351 9.03 21.672z"  horiz-adv-x="1024" />

    
    <glyph glyph-name="arrow-triangle-b" unicode="&#58910;" d="M511.979 258.43600000000004l-251.126 251.123h502.256l-251.126-251.123z"  horiz-adv-x="1024" />

    
    <glyph glyph-name="arrow-triangle-t" unicode="&#58911;" d="M512.021 509.564l251.126-251.123h-502.256l251.126 251.123z"  horiz-adv-x="1024" />

    
    <glyph glyph-name="arrow-triangle-r" unicode="&#58912;" d="M637.564 383.97900000000004l-251.123-251.126v502.256l251.123-251.126z"  horiz-adv-x="1024" />

    
    <glyph glyph-name="arrow-triangle-l" unicode="&#58913;" d="M386.436 384.021l251.123 251.126v-502.256l-251.123 251.126z"  horiz-adv-x="1024" />

    
    <glyph glyph-name="close-round" unicode="&#58915;" d="M510.783289 833.668373c-246.300592 0-447.817212-201.514573-447.817212-447.817212 0-246.300592 201.51662-447.815165 447.817212-447.815165s447.817212 201.514573 447.817212 447.815165C958.600501 632.1538 757.083881 833.668373 510.783289 833.668373L510.783289 833.668373 510.783289 833.668373 510.783289 833.668373zM697.369871 251.503337c14.927991-14.927991 14.927991-37.316907 0-52.238758-14.919804-14.927991-37.307697-14.927991-52.236712 0l-134.349871 134.341684-134.349871-134.341684c-14.919804-14.927991-37.307697-14.927991-52.244898 0-14.921851 14.921851-14.921851 37.310767 0 52.238758l134.347824 134.347824-134.347824 134.349871c-14.921851 14.918781-14.921851 37.307697 0 52.246945 14.937201 14.919804 37.325094 14.919804 52.244898 0l134.349871-134.349871 134.349871 134.349871c14.927991 14.919804 37.316907 14.919804 52.236712 0 14.927991-14.939247 14.927991-37.328164 0-52.246945l-134.341684-134.349871L697.369871 251.503337 697.369871 251.503337 697.369871 251.503337 697.369871 251.503337zM697.369871 251.503337"  horiz-adv-x="1024" />

    
    <glyph glyph-name="check-round" unicode="&#58916;" d="M510.63184 832.543759c-246.570745 0-447.159226-200.588481-447.159226-447.165366 0-246.564605 200.588481-447.178669 447.159226-447.178669 246.609631 0 447.196065 200.614064 447.196065 447.178669C957.827905 631.955278 757.24147 832.543759 510.63184 832.543759zM788.397051 509.906571L454.622198 176.13683500000002c-8.012488-8.018627-21.0095-8.018627-29.021987 0l-43.785226 43.785226c-0.002047 0.002047-0.004093 0.005117-0.007163 0.007163L236.950643 364.788449c-8.032954 8.018627-8.032954 21.00643 0 29.025057l43.765783 43.785226c8.013511 8.018627 21.0095 8.018627 29.021987 0l130.370233-130.367163 275.480168 275.484262c8.035 8.007371 21.0095 8.007371 29.042453 0l43.765783-43.785226C796.409538 530.927327 796.409538 517.925199 788.397051 509.906571z"  horiz-adv-x="1024" />

    
    <glyph glyph-name="envelope-on" unicode="&#58917;" d="M929.698241 70.14687200000003c1.759063-1.166569 13.966083-9.68764 29.034267-25.251104L958.732507 457.578786 510.891759 222.94797700000004 63.079664 457.578786l0-412.558174c14.762215 15.239076 26.543539 23.486924 27.895327 24.390503l266.712481 160.427806 51.346435-30.874171-289.626353-174.163645c-1.166569-0.851391-36.19434-25.746384-56.32789-73.901127l0-1.852184 895.653867 0 0 1.823532c-20.200064 48.229444-55.504128 73.309656-57.588603 74.750471L613.287871 198.97396000000003l51.271734 30.869055L929.698241 70.14687200000003zM185.043437 529.0730960000001l325.848323 170.755012 325.876975-170.755012L958.668039 529.0730960000001 510.891759 763.704928l-447.358771-234.408751 0.38067-0.223081L185.043437 529.0730960000001z"  horiz-adv-x="1024" />

    
    <glyph glyph-name="envelope-off" unicode="&#58918;" d="M640.1656249999999 373.365234375l317.54619140625 312.08554687500003c-7.2386718750000005 15.12158203125-22.68017578125 25.5673828125-40.56591796875 25.5673828125H108.06171875000001c-17.8857421875 0-33.3263671875-10.44580078125-40.565039062500006-25.5673828125L385.04287109374997 373.365234375c70.44873046875-44.41376953125 184.67314453125-44.41376953125 255.12275390625 0zM63.11269531250002 623.44921875v-500.83769531249993l263.94521484375 251.0595703125L63.11269531250002 623.44833984375z m635.0361328124999-249.77812500000002l263.94609375000005-251.0595703125V623.44921875L698.148828125 373.67021484375005z m-41.3455078125-39.1271484375c-79.63857421875-50.540625-208.7595703125-50.540625-288.39814453125 0l-11.8916015625 11.2517578125L68.19453125000001 60.977343750000045c7.498828125-14.375390625000001 22.531640624999998-24.19541015625 39.8671875-24.19541015625h809.0841796875c17.33642578125 0 32.37011718749999 9.82001953125 39.868066406249994 24.196289062500004l-288.31904296875 284.818359375-11.8916015625-11.253515625z"  horiz-adv-x="1025" />

    
    <glyph glyph-name="edge" unicode="&#58919;" d="M96.655 434.725h0.502q8.036 63.281 29.381 121.289t57.757 108.984 84.124 88.392 112.249 59.013 138.867 21.595q116.016 0 207.923-52.986t147.656-152.428q52.233-93.917 52.233-221.986v-94.42h-565.011q0.502-55.748 26.869-96.68t68.555-61.523 95.173-28.627 106.975-1.507 104.464 23.353 87.138 42.439v-189.342q-46.205-27.623-115.263-46.205t-156.947-19.085-158.705 26.618q-94.922 36.663-156.445 125.056t-62.528 186.83q-1.507 121.54 55.748 206.92t163.225 134.599q-24.108-30.134-39.173-63.03t-23.103-80.107h318.917q4.017 38.672-4.017 70.313t-23.604 50.977-35.407 33.398-40.43 20.592-37.667 10.296-28.125 4.268l-11.048 0.502q-67.802-2.511-130.329-22.35t-112.249-52.483-88.392-70.564-69.308-82.116z"  horiz-adv-x="1024" />

    
    <glyph glyph-name="chrome" unicode="&#58920;" d="M504.687 582.654c3.75 0 7.575-0.15 11.251-0.375v0.15l391.083 0.15c-71.856 148.812-224.194 251.421-400.459 251.421-127.885 0-243.095-54.079-324.252-140.562l138.161-241.596c26.627 76.132 99.007 130.811 184.215 130.811zM377.101 387.563c0-70.432 57.08-127.585 127.585-127.585s127.585 57.08 127.585 127.585-57.155 127.585-127.585 127.585-127.585-57.155-127.585-127.585zM543.84 196.447c-12.601-2.625-25.727-3.975-39.154-3.975-69.156 0-129.835 36.003-164.489 90.308l-0.375-0.3-202.667 354.329c-47.48-70.731-75.157-155.788-75.157-247.371 0-214.893 152.487-394.158 355.08-435.562l-9.976 6 136.736 236.57zM932.972 515.298l-280.823-0.15c29.627-34.203 47.629-78.832 47.629-127.585 0-37.728-10.726-72.981-29.327-102.833l-195.691-338.578c10.501-0.75 21.077-1.275 31.802-1.275 245.496 0 444.562 199.067 444.562 444.562 0 43.728-6.376 85.957-18.151 125.86z"  horiz-adv-x="1024" />

    
    <glyph glyph-name="opera" unicode="&#58921;" d="M962 384v0 0c0-133.256-57.994-253.125-150.131-335.419-115.481-56.25-223.088-16.875-258.581 7.706 113.4 24.806 198.956 161.888 198.956 327.656s-85.612 302.85-198.956 327.825c35.662 24.638 143.269 63.956 258.581 7.762 92.081-82.463 150.131-202.331 150.131-335.587v0 0zM363.838 637.631c-49.725-58.725-81.9-145.519-84.038-243.113 0-0.169 0-20.925 0-21.262 2.138-97.369 34.481-184.219 84.206-242.944 64.519-83.869 160.481-136.912 267.694-136.912 65.925 0 127.631 20.025 180.338 55.012-79.819-71.212-184.894-114.413-300.038-114.413-7.2 0-14.4 0.169-21.431 0.506-238.556 11.25-428.569 208.125-428.569 449.494 0 248.569 201.431 450 450 450 0.506 0 1.069 0 1.744 0 114.581-0.338 219.037-43.594 298.294-114.637-52.763 34.988-114.413 55.181-180.338 55.181-107.212 0-203.175-53.1-267.919-136.912z"  horiz-adv-x="1024" />

    
    <glyph glyph-name="firefox" unicode="&#58922;" d="M951.264419 501.39471l-12.170181-65.410756c-14.195304 109.527532-31.945573 166.82961-31.945573 166.82961-10.138918 42.592051-41.075511 71.497381-41.075511 71.497381 18.766412-20.791535 16.226566-72.513524 16.226566-72.513524-28.898167 65.415872-69.466118 89.248673-69.466118 89.248673C672.371524 828.460768 507.574201 817.30673 507.574201 817.30673c-211.4519 5.072529-320.979432-141.478222-320.979432-141.478222-23.324218 21.299095-20.283975 54.769394-20.283975 54.769394-51.213405-55.276954-43.608194-147.052171-43.608194-147.052171l-25.864064-52.230572c-13.179161-16.734126-23.324218-88.74009-23.324218-88.74009l0-9.631358-3.041266-133.871987 5.580089 33.469276c30.422893-187.111538 131.333164-261.143649 131.333164-261.143649 234.270605-203.338105 463.9701-87.216387 463.9701-87.216387 219.564671 77.579913 257.091356 304.244282 257.091356 304.244282 33.465183 101.926414 22.816658 212.975603 22.816658 212.975603L951.264419 501.39471zM798.130739 537.910369c25.349341-25.355481-2.025123-167.342286-2.025123-167.342286l-30.429033 30.429033c10.145058-180.51633-44.61922-189.646268-44.61922-189.646268l13.181207 72.005964-4.057409-13.186324c-133.865847-225.140667-342.779947-33.463136-342.779947-33.463136 85.187171-25.356504 132.851751 12.170181 132.851751 12.170181 40.562834 36.504402 63.892169 35.495422 63.892169 35.495422 27.381627-4.057409 13.181207 25.349341 13.181207 25.349341-32.44904 39.551808-84.171028 25.356504-84.171028 25.356504-82.145905-41.583071-122.711809-7.103792-122.711809-7.103792-97.361445 58.82578-28.396747 97.361445-28.396747 97.361445 10.143011 4.056386 52.737108-15.211447 52.737108-15.211447 5.066389 15.211447-7.103792 62.877049-7.103792 62.877049l74.037227 51.721988 14.195304 15.210423 2.025123 22.309098-3.041266 10.145058-66.932412 1.016143c-39.551808-7.103792-51.721988 36.504402-51.721988 36.504402 7.097652 50.711985 61.867046 85.191264 61.867046 85.191264-106.491383-7.097652-118.661563-52.737108-118.661563-52.737108-77.073376 11.159154-98.371448-4.057409-98.371448-4.057409l-34.479279 36.510542 16.22759-14.195304 16.226566 9.128915C326.550311 784.351154 503.009232 789.417543 503.009232 789.417543c157.197228-11.155061 197.760063-51.716872 197.760063-51.716872-99.387591 13.179161-95.332229 0-95.332229 0 70.989821-8.113795 125.754099-42.599214 125.754099-42.599214-50.705845 3.041266-88.23253-12.170181-88.23253-12.170181 177.481204-41.576931 198.780299-184.573739 198.780299-184.573739C817.398572 553.1166989999999 798.130739 537.910369 798.130739 537.910369L798.130739 537.910369zM798.130739 537.910369"  horiz-adv-x="1024" />

    
    <glyph glyph-name="ie" unicode="&#58923;" d="M170.784 453.681c50.455 167.877 161.011 287.601 363.146 304.67 13.87 1.173 33.38 0.119 49.238 3.078 13.694 2.557 30.379 12.161 46.163 18.461 64.086 25.603 205.593 70.462 276.974 15.391 62.01-47.84 50.586-164.206 12.311-240.044 30.589-59.927 53.181-143.45 40.007-236.97-179.566-7.199-388.739-0.999-563.188-3.073 5.84-90.292 64.218-159.465 150.798-169.267 84.644-9.584 143.134 36.891 181.573 89.249h215.425c-55.967-156.214-198.234-277.369-418.539-261.587-50.113 3.59-89.113 17.767-132.335 33.85-72.176-38.347-231.897-95.323-295.436-15.385-48.235 60.682-17.239 171.082 9.228 243.122 53.582 145.812 155.596 290.251 255.434 372.38 0.585 2.494 3.092 3.065 3.078 6.155-78.876-39.097-132.043-103.899-193.878-160.032v0zM927.85 681.413c-2.912 104.708-142.023 94.467-215.425 52.32 81.974-31.89 141.838-85.894 190.802-150.798 10.618 32.937 25.686 60.199 24.624 98.48v0zM395.437 425.984h341.605c-9.934 214.066-330.881 196.788-341.605 0v0zM143.087 50.527000000000044c17.127-94.784 153.706-67.213 215.42-24.618-81.034 44.113-131.517 118.782-172.339 203.114-18.95-45.595-54.394-115.91-43.082-178.495v0zM143.087 50.527000000000044z"  horiz-adv-x="1024" />

    
    <glyph glyph-name="safari" unicode="&#58924;" d="M512 832c-24.064 0-47.712-1.792-70.816-5.216-0.288 0.768-0.64 1.536-0.992 2.304 12.832 10.016 19.552 23.84 16.64 37.536-3.744 17.568-22.4 29.376-46.432 29.376-5.184 0-10.464-0.576-15.68-1.664-30.176-6.4-50.144-28.608-45.472-50.56 2.848-13.344 14.304-23.328 30.176-27.392-0.032-0.96-0.032-1.952 0.032-2.944-200.608-57.536-347.424-242.336-347.424-461.44 0-265.088 214.912-480 480-480s480 214.912 480 480c0 265.088-214.912 480-480 480zM364.896 847.104c-2.72 12.736 12.48 27.2 33.152 31.584 4.128 0.864 8.288 1.312 12.352 1.312 16.032 0 28.704-6.88 30.784-16.704 1.6-7.52-3.072-15.616-11.392-21.888-7.04 4.96-16.032 7.136-25.088 5.184-9.056-1.92-16.352-7.52-20.768-14.848-10.176 2.464-17.504 8.096-19.04 15.36zM769.376 94.62400000000002c-43.968-43.968-97.216-75.264-155.296-92.16l-42.4 68.768-10.752-79.968c-16.096-2.144-32.416-3.264-48.928-3.264-97.216 0-188.64 37.856-257.376 106.624-43.968 43.968-75.264 97.216-92.16 155.296l68.768 42.4-79.968 10.752c-2.144 16.096-3.264 32.416-3.264 48.928 0 97.216 37.856 188.64 106.624 257.376 43.968 43.968 97.216 75.264 155.296 92.16l42.4-68.768 10.752 79.968c16.096 2.144 32.416 3.264 48.928 3.264 97.216 0 188.64-37.856 257.376-106.624 43.968-43.968 75.264-97.216 92.16-155.296l-68.768-42.4 79.968-10.752c2.144-16.096 3.264-32.416 3.264-48.928 0-97.216-37.856-188.64-106.624-257.376zM760.896 600.896l-196.992-149.696c-14.656 7.648-30.88 12.064-47.424 12.736l-51.072 107.168-3.072-118.656c-13.28-6.528-25.088-15.648-34.88-26.944l-63.104 22.368 46.08-48.544c-6.336-13.504-9.856-28.032-10.432-42.816l-107.168-51.072 118.752-3.072c0.384-0.768 0.768-1.536 1.184-2.272l-149.696-196.992 196.992 149.696c14.656-7.648 30.88-12.064 47.424-12.736l51.072-107.168 3.072 118.656c13.28 6.528 25.12 15.648 34.88 26.944l63.104-22.368-46.08 48.544c6.336 13.504 9.856 28.032 10.432 42.816l107.168 51.072-118.72 3.072c-0.384 0.768-0.768 1.536-1.184 2.272l149.696 196.992zM512.096 451.456l0 0zM492.032 445.888c6.72 1.44 13.44 2.112 20.064 2.112 4.16 0 8.256-0.256 12.288-0.8l0.096-0.032 0 0.032c8.736-1.152 17.184-3.488 25.12-6.912l-71.552-54.368-54.368-71.552c-2.368 5.6-4.256 11.488-5.568 17.664-11.04 51.872 22.08 102.848 73.952 113.856zM562.112 270.11199999999997l0 0 0 0c-9.056-5.536-19.168-9.696-30.144-12.032-6.72-1.44-13.44-2.112-20.064-2.112-4.16 0-8.256 0.288-12.32 0.8l-0.064 0c-8.736 1.152-17.184 3.488-25.12 6.88l71.552 54.368 54.368 71.552c2.368-5.6 4.256-11.488 5.568-17.664 8.704-40.896-10.048-81.216-43.776-101.856z"  horiz-adv-x="1024" />

    
    <glyph glyph-name="theworld" unicode="&#58925;" d="M504.615936 460.617728c0.048128 0.073728 0.116736 0.13824 0.162816 0.212992-0.182272 0.8704-0.330752 1.630208-0.397312 2.171904C504.46336 462.211072 504.549376 461.415424 504.615936 460.617728zM674.030592 275.633152c0.006144 0 0.006144 0.008192 0.006144 0.012288-0.022528 0.01024-0.100352 0.01024-0.116736 0.03584C673.944576 275.65567999999996 674.004992 275.65567999999996 674.030592 275.633152zM678.368256 275.091456c-1.048576 0.167936-3.4048-0.13824-4.33664 0.541696C673.456128 273.64864 674.323456 272.90009599999996 678.368256 275.091456zM513.349632 826.79808c-243.615744 0-441.097216-197.481472-441.097216-441.095168 0-243.6096 197.481472-441.099264 441.097216-441.099264 243.607552 0 441.097216 197.48864 441.097216 441.099264C954.446848 629.316608 756.957184 826.79808 513.349632 826.79808zM795.096064 654.4896c-15.198208-0.4608-25.778176-0.489472-37.988352-8.915968-4.92032-3.400704-8.260608-7.90528-14.503936-9.65632-5.598208-1.575936-11.640832-0.19456-17.195008-2.07872-20.041728-6.801408-16.866304-49.727488-43.273216-43.24352-12.404736 3.043328-21.146624 17.701888-27.389952 27.27424-5.499904 8.421376-15.514624 15.386624-8.75008 25.926656-3.085312-0.791552-6.375424 0.110592-9.413632-0.466944 4.230144 9.288704 18.417664 8.476672 20.777984 13.22496 5.878784 11.897856-16.18432 13.140992-22.431744 14.790656 7.530496 8.026112 11.341824-2.700288 18.77504-0.878592 7.143424 1.758208-3.769344 11.165696-8.05376 12.222464-1.538048 0.380928-26.69056-6.950912-12.132352 6.07744-17.972224 11.456512-35.935232 22.908928-53.911552 34.373632-3.02592-12.745728 23.919616-19.989504 32.720896-24.480768-1.36704-5.26336-9.55392-12.928-15.822848-10.684416-5.904384 2.117632-3.5072 11.901952-12.423168 10.918912-6.366208-14.800896 13.459456-10.474496 15.301632-19.545088 2.093056-10.334208-7.494656-5.95456-11.18208-5.776384-0.878592 0.04608-7.75168 7.159808-8.122368 1.774592-0.44544-6.395904 10.960896-3.90144 11.76576-10.359808-13.285376-0.5376-20.071424 4.258816-30.886912 11.444224-12.623872 8.378368-19.101696 7.622656-34.568192 7.622656 4.625408 1.900544 10.99776 3.308544 14.953472 6.368256 2.159616 1.672192 10.638336 9.91232 11.19744 11.751424 2.39616 7.938048-0.130048 7.335936-7.725056 12.53888-6.751232 4.619264-14.939136 12.910592-23.119872 14.543872-29.63968 5.916672-9.141248-26.760192-31.640576-31.265792 0.385024-0.02048 0.801792-0.037888 1.132544-0.037888l-1.289216 0c0.058368 0.004096 0.104448 0.0256 0.156672 0.037888-5.204992 0.186368-14.959616 1.452032-18.313216-1.297408-2.367488-1.933312-2.566144-9.698304-5.213184-12.509184-4.709376-5.020672-11.730944-6.023168-17.350656-9.644032-5.485568-3.536896-17.580032-12.611584-20.801536-18.766848-11.87328-22.684672 26.753024-29.725696 41.397248-36.356096 6.616064-2.997248 25.952256-7.099392 29.553664-12.105728 4.830208-6.72256-4.16256-13.026304 5.922816-17.752064 3.221504-1.50528 9.864192-1.81248 12.639232 1.3056 4.507648 5.081088-1.83296 6.227968-2.91328 12.096512-2.091008 11.297792 1.355776 6.808576 7.037952 11.006976 11.580416 8.549376 8.972288 9.07264 4.805632 22.69696-1.934336 6.341632-9.233408 24.04352-2.812928 28.725248 8.3712 6.107136 26.225664-3.310592 32.64512-4.098048 7.47008-0.914432 11.711488-11.266048 15.782912-15.500288 2.704384-2.81088 7.540736-8.77568 12.264448-8.13056 7.498752 1.027072 4.361216 7.58272 8.710144 10.606592 11.667456 8.091648 14.74048-2.900992 19.390464-13.894656 4.374528-10.326016 8.513536-14.158848 16.299008-20.78208 3.616768-3.083264 19.462144-14.087168 17.967104-20.870144-1.012736-4.569088-19.115008-11.498496-23.955456-13.032448-17.693696-5.604352-50.886656 9.17504-54.4512-18.884608 6.864896 2.555904 26.391552 18.507776 32.247808 10.947584 2.670592-3.4304-2.117632-8.426496-0.990208-11.833344 3.340288-10.213376 11.21792-6.654976 19.478528-5.004288-0.5632-0.351232-1.140736-0.657408-1.750016-0.930816 11.286528 5.799936 10.113024 4.591616 15.292416 13.999104 1.690624 3.074048 4.206592 10.512384 6.588416 12.711936 8.204288 7.54688 9.467904 2.35008 14.550016-3.472384 1.3312-1.533952 13.896704-19.627008 9.423872-18.724864-14.616576 2.931712-28.649472 2.538496-40.771584-5.453824-6.98368-4.61312-13.589504-10.836992-21.931008-13.9008-1.998848-0.730112-16.80384-2.132992-15.053824 0.391168 2.55488 3.68128 11.347968 6.117376 14.81728 10.09152-9.616384 3.959808-17.636352-4.784128-25.192448-9.89696-8.01792-3.792896-9.882624-10.862592-16.709632-17.060864-2.97984-2.702336-8.615936-3.162112-11.542528-6.718464-2.838528-3.45088-3.191808-8.87808-5.880832-12.153856-1.887232-2.29376-6.724608-0.908288-8.69376-4.365312-2.566144-4.516864 2.348032-8.710144 1.270784-11.963392-1.973248-5.912576-13.218816-10.929152-17.543168-15.18592 0.577536 0.555008 1.150976 1.1264 1.716224 1.705984-4.334592-4.547584-9.818112-7.891968-13.202432-13.154304 1.553408-7.428096 6.452224-25.146368 5.086208-29.222912-4.507648-13.411328-13.262848 7.293952-16.81408 12.643328-12.199936 18.381824-36.583424 6.081536-53.240832 4.555776-21.303296-1.948672-42.169344-29.595648-29.028352-52.037632 6.30784-10.76224 16.918528-14.928896 29.090816-12.438528 10.832896 2.217984 14.08512 17.373184 24.286208 17.649664 18.746368 0.499712 0.412672-18.369536-1.209344-25.294848-1.50016-6.414336 2.337792-7.007232 8.940544-8.597504 4.876288-1.165312 11.78112 2.086912 16.008192-0.697344 2.6624-1.758208 2.5344-11.382784 6.197248-8.346624-7.209984-5.977088-5.525504-20.148224 1.866752-25.269248 8.196096-5.686272 17.846272-0.420864 26.427392-2.604032 16.200704-4.133888 8.467456 1.234944 22.694912 9.824256 9.602048 5.786624 11.177984-1.09056 17.739776-1.117184 4.466688-0.018432 7.304192 6.421504 14.772224 4.547584 6.08768-1.533952 8.493056-6.233088 15.761408-7.314432 2.97984-0.439296 6.05696 1.12128 8.89856 0.807936 13.443072-1.494016 23.735296-10.083328 34.3296-17.850368 8.7296-6.391808 14.512128-5.096448 24.70912-8.011776 7.450624-2.122752 21.1968-12.904448 20.493312-22.371328-0.125952-1.692672-6.638592-10.205184-7.75168-14.03904 1.906688-1.32096 15.16544 1.642496 19.045376 1.921024-1.27488-1.483776-10.303488-7.827456-10.303488-4.45952 0-1.726464 6.387712-5.271552 7.944192-6.373376 4.709376 15.290368 12.444672 5.451776 21.753856 1.664 7.91552-3.223552 17.657856-3.396608 26.100736-5.407744 7.165952-1.705984 22.969344-6.544384 28.279808-12.40064 6.391808-7.049216 1.973248-18.501632-2.756608-25.515008-6.187008-9.192448-15.516672-12.729344-19.376128-23.544832-3.049472-8.572928-0.759808-17.234944-2.502656-26.738688-2.356224-12.864512-4.24448-8.354816-12.529664-16.2048-6.971392-6.610944-0.116736-5.462016-9.608192-9.675776-9.53344-4.236288-17.928192-2.975744-24.528896-13.435904 0.264192 0.657408 0.479232 1.316864 0.663552 2.004992-2.78528-3.897344-4.17792-11.879424-5.497856-14.497792-3.328-6.682624-7.917568-10.897408-13.180928-16.462848-2.01728-2.130944-20.560896-27.464704-21.632-25.428992-1.37728 2.64704-15.997952-2.658304-16.695296 1.117184 0.581632-3.173376-0.13824-2.10944 3.492864-3.938304-3.362816-20.819968-12.168192-23.92576-32.613376-24.13568 1.758208-10.006528-7.40864-8.009728-11.669504-13.389824-2.490368-3.141632-3.679232-11.97568-5.405696-16.044032-1.078272-2.55488-9.060352-12.793856-9.060352-14.8224-0.008192-1.8688 2.684928-4.606976 5.20704-7.232512-14.413824-2.850816-29.110272-4.8384-44.03712-6.050816 2.794496 3.520512 3.46624 6.614016-5.433344 7.037952 2.381824 6.47168 7.973888 10.1632 10.343424 16.431104 1.124352 2.957312 0.19456 4.12672 1.144832 7.057408 3.25632 10.115072 1.844224 6.299648 0.008192 14.1568-4.3008 18.415616 1.529856 23.452672 6.550528 40.313856 5.152768 17.327104 4.673536 39.788544 7.975936 58.452992 1.565696 8.932352 4.13184 27.516928 1.030144 35.959808-3.494912 9.50784-18.869248 16.996352-25.910272 23.390208-9.96864 9.08288-15.26784 18.896896-22.670336 30.123008-3.757056 5.700608-8.040448 11.295744-10.971136 17.49504-6.269952 13.254656 0.004096 5.36576 1.058816 13.18912 1.010688 7.559168-0.900096 14.31552 2.101248 22.249472 3.319808 8.771584 11.60704 14.237696 14.329856 23.083008 2.450432 7.873536 0.585728 17.770496-7.502848 20.397056-4.507648 1.471488-9.481216-1.918976-14.010368-1.174528-6.316032 1.022976-13.4656 5.738496-18.42176 9.50784-6.919168 5.271552-9.511936 13.838336-16.879616 18.83648-6.1696 4.164608-10.556416 1.672192-17.155072 3.620864-6.88128 2.02752-11.129856 10.518528-16.68096 13.176832-8.33024 3.984384-13.024256-1.736704-21.818368-0.579584-7.478272 0.978944-18.884608 9.2672-25.872384 12.398592-14.209024 6.360064-22.8608 13.379584-28.542976 27.799552-4.866048 12.366848-11.959296 18.13504-20.312064 28.434432-8.46336 10.435584-11.113472 19.328-24.158208 22.109184-1.531904 0.3328 3.191808-10.954752 3.679232-11.859968 4.661248-8.631296 11.661312-16.515072 17.291264-24.551424 8.28416-11.83744 4.753408-14.058496-3.673088-2.612224-9.63584 13.094912-20.81792 26.115072-29.176832 39.983104-3.160064 5.240832-2.552832 8.629248-7.764992 13.605888-5.036032 4.80768-11.626496 7.149568-16.697344 11.722752-18.245632 16.408576-21.563392 38.31296-19.482624 61.705216 0.67584 7.624704 3.4304 13.722624 2.215936 21.052416-1.002496 6.085632-4.595712 11.117568-9.084928 15.60064-1.445888 2.304-5.076992 7.977984-5.286912 8.338432-4.14208 6.88128-7.364608 13.647872-13.944832 19.29216-3.775488 3.252224-13.543424 10.853376-22.740992 17.220608 41.322496 51.53792 95.392768 92.38016 157.421568 117.738496 0.493568-3.11808 1.83296-6.23104 3.84-9.21088 5.100544-7.563264 9.960448-6.965248 19.915776-9.058304-1.067008-11.554816-14.572544-11.646976-23.714816-10.3936-10.912768 1.498112-22.393856 5.123072-31.847424-4.441088 5.221376-3.139584 19.552256-15.366144 17.647616-2.59072 10.454016 0.523264 20.558848 0.835584 30.78656-0.41472 4.098048-0.502784 17.82784-5.110784 21.549056-3.009536 1.5616 0.882688 3.2256 8.587264 4.878336 10.9568-2.915328-0.016384-6.040576 1.455104-8.94464 1.176576 6.772736 8.671232 13.519872 1.8688 22.13888-2.11968-9.489408-5.766144-3.861504-19.585024 5.415936-8.356864 7.620608 9.233408-1.864704 15.927296-11.54048 21.307392 9.756672 12.204032 15.773696 13.304832 24.953856-0.468992 1.513472 8.495104 8.369152 5.0944 15.535104 4.466688l0 2.1248c-3.15392-0.075776-6.521856 1.738752-9.644032 1.411072 7.300096 11.646976 2.640896 14.307328 13.07648 18.10944 8.310784 3.02592 32.019456 0.208896 34.940928 8.022016-16.592896-3.2256-36.63872-3.997696-51.608576-11.542528-6.454272-3.252224-14.143488-13.52192-20.589568-6.847488-6.606848 6.847488 4.72576 17.85856 10.523648 21.215232l-1.38752 0c26.253312 5.583872 53.44256 8.58112 81.338368 8.58112 18.024448 0 35.738624-1.333248 53.126144-3.708928-6.017024-3.160064-1.567744-5.293056-5.950464-8.522752-8.369152-6.155264-23.225344-11.291648-33.184768-15.181824 12.659712 0.033792 43.305984-11.871232 49.204224 5.886976-4.087808 0.627712-8.164352 1.257472-12.248064 1.885184 7.6288 5.05856 16.13824 9.152512 25.07264 12.153856 80.620544-15.971328 152.331264-56.863744 206.882816-114.245632C795.859968 654.4896 795.472896 654.49984 795.096064 654.4896zM866.485248 499.621888c0.726016 1.550336 2.42176 2.061312 3.122176 3.340288 1.473536 2.689024 1.144832 4.512768 2.95936 6.820864 1.942528 2.494464 4.562944 3.105792 6.730752 5.054464 0.874496 0.784384 1.360896 1.511424 1.762304 2.251776 6.506496-18.157568 11.693056-36.931584 15.464448-56.20736-0.114688-0.13824-0.178176-0.347136-0.320512-0.462848-0.948224-0.749568-7.130112-1.668096-8.398848-1.712128-4.476928-0.172032-7.80288 2.798592-11.017216 5.594112-3.269632 2.840576-7.119872 6.64064-9.443328 10.317824-2.482176 3.928064-0.950272 7.963648-0.772096 12.450816C866.719744 490.842112 864.883712 496.222208 866.485248 499.621888zM871.532544 297.377792c-7.576576 6.582272-16.515072 15.40608-21.902336 23.931904-5.753856 9.091072-2.207744 18.446336-1.78688 28.857344 0.349184 8.756224-3.928064 21.216256-0.206848 29.100032 1.708032 3.59936 5.623808 4.790272 7.235584 7.739392 3.426304 6.245376 2.666496 10.466304 6.87104 15.835136 4.509696 5.766144 10.573824 7.185408 15.598592 11.707392 5.26336 4.740096 5.116928 8.480768 8.449024 14.554112 2.438144 4.443136 8.168448 11.849728 13.5936 15.72352 2.942976-19.283968 4.476928-39.032832 4.476928-59.122688 0-34.760704-4.625408-68.450304-13.191168-100.549632C883.367936 287.03743999999995 877.361152 292.3008 871.532544 297.377792z"  horiz-adv-x="1024" />

    
    <glyph glyph-name="qq" unicode="&#58926;" d="M200.878 433.286l-1.599 4.928-1.28 6.462-0.895 3.539v14.543l1.537 5.696 1.599 6.081 2.048 6.321 2.786 7.072 3.68 7.343 5.184 7.36v5.167l0.512 4.817 0.766 6.576 2.242 7.327 2.048 7.968 1.632 3.681 1.887 3.408 2.432 3.791 2.624 2.802v18.206l1.537 9.375 1.537 10.882 2.75 13.022 3.778 13.536 2.815 7.475 2.786 8.094 3.037 7.586 3.651 8.094 3.712 8.863 4.287 8.336 4.801 8.864 6.078 8.866 2.786 5.056 3.008 4.175 6.495 9.359 6.658 9.362 7.616 9.614 8.127 9.377 8.834 9.215 9.215 9.506 11.138 10.24 7.104 6.207 8.609 6.704 8.737 5.938 9.47 5.695 9.09 5.056 10.24 4.176 10.88 5.2 10.817 3.537 10.816 3.663 11.646 3.664 11.65 2.784 12.289 2.288 12.416 2.016 24.511 3.312 13.058 0.736h38.593l12.865-1.632 12.928-1.536 13.186-1.392 12.223-2.912 12.928-2.768 12.132-3.152 13.278-3.552 12.16-4.304 11.65-4.928 12.417-5.2 11.36-5.696 11.007-6.304 10.785-6.976 9.346-6.449 4.286-3.663 4.545-2.658 8.641-7.344 7.295-7.087 7.232-7.343 7.105-8.097 5.827-7.838 6.911-8.097 4.866-8.72 4.896-7.73 5.214-8.991 4.29-7.838 7.297-16.577 3.582-8.592 2.786-7.969 2.786-8.608 2.493-8.094 1.793-6.96 2.241-8.225 3.968-14.673 2.527-12.783 1.632-12.4 1.409-9.984 2.241-15.185 0.512-2.415 1.792-2.785 4.798-7.838 3.074-5.298 2.752-5.583 3.519-5.935 3.074-7.105 1.983-7.33 2.176-7.966 1.665-8.208 0.766-4.047 0.643-4.945v-4.305l-0.643-4.303v-5.328l-1.277-5.168-2.304-10.001-2.624-5.056-1.921-5.695v-1.393l0.895-1.776 2.625-4.175 11.394-16.832 9.021-12.642 4.29-8.481 5.823-9.23 5.057-10.129 5.826-10.862 5.824-12.161 6.56-13.791 3.68-8.465 3.393-8.225 2.945-8.736 2.881-7.838 2.176-8.225 2.239-7.73 2.817-15.053 2.239-15.424 1.537-13.664v-19.232l-1.026-6.848-1.471-11.761-2.048-10.623-3.136-9.601-1.151-3.92-2.176-4.689-1.858-3.296-2.432-4.046-2.176-2.546-2.753-3.28-2.431-2.654-2.625-2.272-3.136-1.393-2.815-1.393-2.303-0.753h-3.522l-2.272 0.753-4.318 2.144-1.986 1.393-2.048 1.52-2.271 2.031-2.275 2.27-3.775 4.178-4.479 5.935-3.52 6.097-3.522 4.912-3.421 5.696-4.833 10.128-5.44 10.512-0.642 0.367h-0.895l-2.241-1.648-1.278-2.769-2.113-3.421-3.712-10.256-5.568-14.546-7.166-17.456-5.378-8.737-5.662-9.102-6.688-10.241-7.105-10.017-3.65-4.545-4.414-4.928-10.145-9.997 0.895-0.881 1.375-1.409 5.057-3.022 21.123-10.128 9.214-5.185 8.77-5.056 8.703-6.337 7.744-6.576 3.778-2.91 2.815-3.408 2.881-3.938 2.431-4.303 1.281-3.535 1.599-4.306 0.64-3.663 0.769-4.303-0.769-2.896v-2.913l-0.64-3.038-1.599-2.785-0.639-2.159-1.409-2.641-3.84-5.2-3.52-4.175-2.752-3.152-2.304-2.287-5.826-4.29-6.59-3.696-7.043-3.535-7.487-3.408-8.449-3.28-4.479-1.409-4.034-1.118-9.726-2.29-20.225-4.303-11.011-1.776-11.391-0.498-11.65-1.39h-36.16l-13.055 0.75-12.161 1.137-13.058 1.776-12.993 1.393-13.694 1.904-13.249 3.296-12.931 2.527-12.862 3.663-13.186 4.689-12.928 3.919-6.783 2.258-6.082 2.175-3.84 1.504-3.775 0.75h-10.752l-12.417 0.898-6.305 0.639-8.097 0.895-5.184-4.686-7.104-4.434-9.601-4.689-10.624-5.822-6.462-3.169-6.721-2.511-14.913-6.081-8.097-2.032-8.481-2.27-11.774-2.275-7.359-0.622-7.809-0.639-8.13-0.898-9.471-0.383h-38.691l-21.858 0.383-21.185 2.159-10.752 1.504-20.48 3.041-10.113 2.032-9.375 3.04-9.379 2.144-8.448 3.408-7.999 3.169-7.426 3.552-6.462 3.919-6.465 4.689-2.176 2.272-2.881 2.768-2.176 2.432-1.986 2.769-1.789 2.784-1.409 2.782-2.015 5.938-0.737 3.041-0.895 3.421v3.152l0.895 3.535v3.568l0.737 3.535v7.091l0.35 3.791 1.665 4.303 1.409 4.305 2.56 5.185 1.855 2.015 1.537 2.287 4.03 4.928 3.201 2.53 3.008 1.776 2.786 2.272 4.447 1.392 3.519 2.144 4.417 2.287 5.056 1.504 5.056 1.537 5.823 1.265 12.161 1.632 7.104 0.511 1.888 0.64h0.383l0.897 0.769v0.862l-1.28 1.776-3.808 1.776-9.471 8.225-6.338 5.056-7.359 6.449-7.426 7.199-7.743 9.247-8.832 10.368-3.329 5.586-4.417 5.807-3.775 6.72-3.392 7.326-4.608 6.961-3.008 7.969-3.552 7.966-3.552 8.866-2.625 8.464-2.432 10.512-0.769 0.383h-0.734l-0.384 0.751h-0.897l-2.272-1.134-1.025-1.776-0.384-2.147-0.766-1.904-1.347-3.152-4.352-7.727-2.238-4.688-3.552-4.047-3.807-4.912-4.162-5.455-4.417-4.817-5.184-4.673-4.83-4.414-5.279-3.44-5.827-3.663-5.567-2.147-6.593-1.648-6.462-0.622h-1.537l-1.471 0.622-1.154 2.546-1.92 1.249-2.496 6.078-1.535 3.296-1.665 4.689-1.376 4.912-0.737 4.814-2.048 11.01-0.767 6.462v21.25l0.767 15.808 1.28 8.097 1.504 8.352 1.376 8.976 2.432 8.352 2.752 9.631 2.815 9.346 3.779 9.631 3.552 9.234 4.896 9.358 4.608 10.113 5.567 9.487 6.56 10.256 6.688 9.234 6.977 10.24 5.824 7.087 7.458 8.225 7.839 8.223 3.65 3.922 4.447 4.431 6.433 5.583 6.593 5.682 10.752 9.614 8.127 5.937z"  horiz-adv-x="1024" />

    
    <glyph glyph-name="weixin" unicode="&#58927;" d="M656.548 544.847c9.973 0 19.842-0.713 29.626-1.809-26.627 123.979-159.171 216.094-310.474 216.094-169.158 0-307.713-115.278-307.713-261.681 0-84.537 46.098-153.9 123.132-207.739l-30.777-92.562 107.572 53.933c38.489-7.606 69.375-15.451 107.783-15.451 9.657 0 19.228 0.483 28.727 1.226-6.01 20.559-9.499 42.103-9.499 64.477 0.002 134.428 115.446 243.509 261.62 243.509zM488.927 634.524c26.275 0 47.574-21.299 47.574-47.574s-21.298-47.574-47.574-47.574c-26.275 0-47.572 21.299-47.572 47.574s21.299 47.574 47.574 47.574zM273.631 538.418c-26.275 0-47.574 21.299-47.574 47.572s21.3 47.574 47.574 47.574c26.276 0 47.575-21.299 47.575-47.572 0-26.273-21.298-47.574-47.575-47.574zM935.223 304.03499999999997c0 123.022-123.101 223.302-261.369 223.302-146.411 0-261.719-100.281-261.719-223.302 0-123.234 115.308-223.296 261.719-223.296 30.639 0 61.55 7.734 92.327 15.449l84.407-46.231-23.148 76.898c61.769 46.337 107.782 107.782 107.782 177.179zM593.452 338.52099999999996c-18.71 0-33.877 15.169-33.877 33.878 0 18.711 15.167 33.877 33.877 33.877s33.877-15.167 33.877-33.877c0.002-18.71-15.167-33.878-33.877-33.878zM762.612 336.59900000000005c-18.711 0-33.877 15.168-33.877 33.877 0 18.713 15.167 33.877 33.877 33.877 18.71 0 33.877-15.166 33.877-33.877 0.001-18.709-15.167-33.877-33.877-33.877z"  horiz-adv-x="1000" />

    
    <glyph glyph-name="tengxunweibo" unicode="&#58928;" d="M320.851 756.631c-143.655 0-258.851-115.195-258.851-257.496 0-40.657 9.487-81.315 28.46-117.907 5.422-10.842 18.973-16.264 31.17-9.487 12.198 5.421 16.263 18.973 9.487 31.17-14.908 29.815-23.039 62.341-23.039 96.222 0 116.551 94.867 212.772 212.772 212.772 117.907 0 212.772-94.867 212.772-212.772 0-116.551-94.867-212.772-212.772-212.772-16.263 0-32.526 1.356-47.434 5.422-12.198 2.71-24.394-5.422-27.105-17.618-2.71-12.198 5.422-24.394 17.618-27.105 18.973-4.066 37.947-6.776 58.275-6.776 142.3 0 258.851 115.195 258.851 257.496-2.71 143.655-117.907 258.851-260.206 258.851zM274.773 432.728c13.553-9.487 31.17-14.908 48.789-14.908 47.434 0 85.381 37.947 85.381 85.381 0 47.434-37.947 85.381-85.381 85.381-47.434 0-85.38-37.947-85.38-85.381 0-12.198 2.71-24.394 6.776-33.881-18.973-18.973-37.947-43.368-58.275-73.183-54.209-81.315-116.551-233.102-98.933-426.901 1.356-12.198 10.842-35.236 23.039-35.236h2.71c12.198 0 21.683 25.749 21.683 39.302-13.553 143.655 17.618 279.179 89.446 387.598 16.264 27.105 33.881 55.565 50.144 71.828zM799.251 566.8969999999999c-18.973-1.356-37.947 2.71-55.565 10.842-59.631 29.815-85.38 101.643-55.565 161.274 28.46 59.631 100.287 85.381 159.919 56.919 59.631-28.46 85.38-100.287 56.919-159.919-4.066-8.132-8.132-16.264-14.908-23.039-4.066-5.421-4.066-13.552 2.71-18.973 5.422-4.066 13.553-4.066 17.618 2.71 6.776 8.132 12.198 17.618 17.618 28.46 35.236 73.183 4.066 159.919-69.117 195.155-71.827 33.881-159.919 2.71-195.155-70.473-35.236-73.183-4.066-159.919 69.117-195.155 20.328-9.487 44.723-14.908 66.407-13.552 6.776 0 13.553 6.776 12.198 13.552 1.356 6.776-4.066 12.198-12.198 12.198zM1012.024 467.964c-77.249 28.46-135.524 74.539-173.47 138.234-9.487 14.908-16.264 29.815-20.328 42.012 8.132 4.066 14.908 12.198 20.328 21.683 10.842 24.394 1.356 52.854-23.039 65.051-24.394 12.198-52.854 1.356-65.051-23.039-12.198-24.394-1.356-52.854 23.039-65.051 5.421-2.71 12.198-4.066 18.973-4.066 5.422-13.553 12.198-29.815 23.039-47.434 28.46-47.434 84.025-112.485 187.024-150.432 6.776-2.71 13.553 0 16.263 6.776 0 0 0 0 0 1.356 4.066 5.421 1.356 12.198-6.776 14.908z"  horiz-adv-x="1092" />

    
    <glyph glyph-name="qzone" unicode="&#58929;" d="M728.310046 445.57745L461.767434 243.97794299999998c0 0 106.97029-16.73515 268.304745-14.794961l-7.344269 33.337269 229.873458 209.996758c4.227278 3.861958 5.846148 10.007935 4.114714 15.613606-1.727341 5.605671-6.466272 9.583263-12.035104 10.076496l-303.045991 27.434839-118.396527 295.42543c-2.166339 5.4225-7.217379 8.955976-12.799514 8.955976-5.581112 0-10.633175-3.533476-12.798491-8.955976L379.240859 525.6419510000001 76.190775 498.207112c-5.562692-0.493234-10.302647-4.470825-12.031011-10.076496-1.731434-5.605671-0.112564-11.751648 4.114714-15.613606l229.872434-209.996758-68.9033-312.407196c-1.26276-5.716188 0.842181-11.701506 5.360078-15.183817 4.539386-3.418866 10.5728-3.683902 15.373129-0.657986l260.461103 165.616992 260.461103-165.616992c2.226714-1.451048 4.708232-2.104941 7.187703-2.104941 2.880607 0 5.749958 0.919952 8.181333 2.758834 4.52199 3.487428 6.627954 9.468652 5.364171 15.188934l-54.480822 247.050676c23.367197 12.392238 49.103348 33.364899 49.103348 33.364899s-102.000092-52.535517-468.182029-26.875091l265.388323 202.817242c0 0-10.429537 17.10968-343.023494 29.323862C218.176556 436.616358 511.592212 494.459764 728.310046 445.57745L728.310046 445.57745zM728.310046 445.57745"  horiz-adv-x="1024" />

    
    <glyph glyph-name="xinlangweibo" unicode="&#58930;" d="M-21.034 913.584v0 0zM728.857 418.124q-15.523 3.111-20.157 9.301t-1.555 11.386l3.111 5.164q1.026 1.026 2.085 3.111t4.138 8.804 4.667 13.438 2.581 16.549-0.529 18.635-6.223 19.132-12.942 18.635q-14.497 14.497-37.766 18.635t-46.538 0.529-43.954-9.301-34.124-10.857l-13.438-6.223q-10.359-3.111-17.079-4.138t-10.359 0.529-5.693 3.111-1.555 7.249 1.026 9.83 2.581 12.942 3.111 13.968q0 12.412-1.555 23.268t-6.719 24.293-14.994 21.713-24.825 13.438-38.793 3.111-53.787-12.412q-36.21-12.412-73.445-36.707t-64.642-50.674-50.178-51.204-35.184-40.348l-11.386-16.549q-34.126-44.485-50.674-88.97t-15.523-67.225v-21.713q6.223-49.648 30.517-88.97t57.923-63.615 79.139-41.374 87.414-24.825 88.441-10.857q76.558-6.223 158.775 11.883t153.083 62.59 99.826 106.546q17.575 36.21 18.106 68.284t-10.857 52.23-29.491 35.681-34.126 22.772-28.432 9.301zM413.39 96.43600000000004q-111.709-5.164-189.791 43.459t-78.08 123.095q0 73.447 77.584 126.703t190.318 58.453 190.32-37.236 77.584-115.846q0-74.473-79.139-133.952t-188.764-64.642zM383.403 382.97400000000005q-29.987-3.111-53.787-13.968t-37.236-24.825-22.772-29.987-12.942-31.543-4.667-28.432-1.026-20.157l1.026-8.275v-4.138q0-3.111 2.085-12.412t5.693-17.079 11.883-17.079 19.661-15.523q68.284-33.099 127.232-20.157t95.159 59.478q14.497 17.575 19.132 43.459t-2.085 52.23-23.268 48.093-49.119 33.629-75.003 6.719zM346.166 187.45799999999997q-6.223-1.026-11.883-0.529t-10.359 2.085-9.301 3.607-7.745 5.693-5.693 7.249-4.138 8.275-1.555 9.83q0 11.386 6.223 22.242t17.079 18.635 24.293 8.804q9.301 1.026 18.106-0.529t14.994-5.164 10.857-8.275 6.719-10.857 2.085-13.438q0-11.386-6.719-21.713t-18.106-17.575-24.825-8.275zM434.077 261.932q-7.249-5.164-14.994-4.667t-10.857 6.719l-2.085 4.138q-1.026 2.085-1.026 4.138v4.138q0 3.111 1.026 5.164l2.085 4.138q1.026 2.085 3.111 3.111l3.111 4.138q8.275 6.223 16.02 5.164t10.857-8.275q3.111-4.138 2.581-9.301t-3.111-9.83-6.719-8.804zM801.277 478.133q6.223 0 11.386 3.111t8.275 7.745 4.138 9.83q1.026 1.026 1.026 3.111 12.412 117.932-82.747 134.481-27.936 5.164-51.733 1.026-7.249 0-12.412-3.607t-8.804-9.301-3.607-11.883q0-10.359 7.249-17.575t17.575-7.249q80.695 18.635 86.885-51.733 2.085-17.575-2.085-33.099 0-10.359 7.249-17.575t17.575-7.249zM783.702 769.802q-45.511 10.359-122.068-4.138-1.026 0-2.085-1.026l-1.026-2.085-1.026-1.026q-11.386-3.111-18.635-12.942t-7.249-21.216q0-15.523 10.359-25.851t24.825-10.359h3.111q1.026 0 4.667 1.026t7.745 1.555 8.804 2.085 8.275 3.111 13.968 1.555 25.354-1.555 33.099-7.745 36.21-15.523 36.21-25.851 31.543-38.262q26.91-61.035 10.359-117.932 0-1.026-0.529-2.085t-1.555-5.164-2.085-7.745-2.085-9.301-1.026-9.83q0-9.301 5.164-15.523t12.942-8.804 18.106-2.581q28.962 0 34.126 35.184 12.412 40.348 13.968 77.055t-5.164 64.642-20.157 52.23-31.046 41.374-39.322 31.046-41.903 22.242-41.903 13.438z"  horiz-adv-x="1024" />

    
    <glyph glyph-name="renren" unicode="&#58931;" d="M563.201 541.0219999999999v261.161c97.767-16.809 179.546-63.574 245.132-140.505 65.587-76.863 98.39-166.313 98.39-268.427 0-100.865-32.18-189.695-96.599-266.623-73.969 36.044-133.584 91.319-179.071 165.759-45.212 74.506-67.852 157.388-67.852 248.634zM495.141 288.78599999999994c24.971-104.46 91.248-191.005 198.614-259.363-60.849-33.685-127.058-50.5-198.614-50.5-71.629 0-137.215 16.816-196.979 50.5 106.276 68.359 171.867 154.903 196.979 259.363zM427.083 802.183v-262.957c-1.239-90.146-24.154-172.331-68.888-246.839-44.73-74.44-103.529-129.715-176.25-165.759-65.592 78.104-98.516 166.936-98.516 266.623 0 102.113 32.924 191.563 98.516 268.427 65.591 76.93 147.232 123.697 245.138 140.505z"  horiz-adv-x="1000" />

    
    <glyph glyph-name="cel" unicode="&#58932;" d="M708.875 834h-393.75c-46.406 0-84.375-37.969-84.375-84.375v-731.25c0-46.406 37.969-84.375 84.375-84.375h393.75c46.406 0 84.375 37.969 84.375 84.375v731.25c0 46.406-37.969 84.375-84.375 84.375zM512-9.75c-31.067 0-56.25 25.184-56.25 56.25s25.184 56.25 56.25 56.25 56.25-25.184 56.25-56.25-25.184-56.25-56.25-56.25zM737.001 158.99900000000002h-450v562.5h450v-562.5z"  horiz-adv-x="1024" />

    
    <glyph glyph-name="computer" unicode="&#58933;" d="M916.103 126.05499999999995h-274.413v-72.215l57.771-57.771v-14.444h-375.514v14.446l57.771 57.771v72.215h-274.413c-23.929 0-43.328 19.401-43.328 43.332v577.708c0 23.931 19.398 43.329 43.328 43.329h808.797c23.931 0 43.33-19.398 43.33-43.329v-577.708c0-23.931-19.399-43.332-43.33-43.332zM901.661 732.653h-779.913v-491.057h779.913v491.057z"  horiz-adv-x="1024" />

    
    <glyph glyph-name="add" unicode="&#58934;" d="M512-66c0 0-337.5 376.144-337.5 562.5s151.144 337.5 337.5 337.5c186.412 0 337.5-151.144 337.5-337.5 0-186.413-337.5-562.5-337.5-562.5zM512 721.5c-124.256 0-225-100.744-225-225s100.744-225 225-225c124.256 0 225 100.744 225 225 0 124.256-100.744 225-225 225z"  horiz-adv-x="1024" />

    
    <glyph glyph-name="tel" unicode="&#58935;" d="M935.229 160.683l-3.462 5.039c1.854-1.744-9.174 11.09-9.174 11.09s-10.354 12.108-37.508 34.557c-22.324 18.454-50.199 39.677-71.938 54.018-26.405 17.419-44.791 28.639-43.636 27.89l-19.393 9.7c-8.503 4.207-22.702 4.665-32.727 1.212-9.059-3.12-17.032-10.216-20.732-16.673 1.585 2.918-6.288-5.737-22.3-34.28-6.862-12.459-14.913-30.05-24.603-47.327-13.148-23.446-47.248-46.644-81.227-27.41-43.125 24.41-98.553 58.094-155.458 112.149-65.961 62.581-102.017 110.575-122.497 156.23-7.456 16.621-4.068 51.428 23.179 64.706 26.913 13.117 42.397 16.427 59.398 26.632 15.392 9.599 12.35 6.396 30.303 18.188 0.725 0.528 6.472 5.529 7.273 6.063 0 0 1.339 1.356 2.424 2.425 11.275 10.69 14.125 24.863 8.484 38.802l-2.424 7.276c0 0-12.951 29.401-32.727 63.054-10.48 17.833-25.722 40.024-37.575 55.778-32.081 42.643-60.605 55.778-60.605 55.778s-7.995 4.212-12.122 6.063c-16.259 6.855-30.686 4.845-44.848-1.212-30.676-11.333-48.147-26.827-71.857-46.317-51.822-42.601-88.14-101.785-80.89-153.453 11.296-80.81 112.725-258.78 245.346-384.653 132.66-125.891 320.206-222.218 405.214-232.851 57.128-7.278 105.519 21.905 153.693 66.298 16.961 15.631 39.124 41.249 50.521 65.632 6.409 13.709 12.667 40.256 1.869 55.596z"  horiz-adv-x="1024" />

    
    <glyph glyph-name="navi" unicode="&#58936;" d="M894.185422 767.976208L129.814578 450.256006 445.99982 318.25564699999995 571.860343 2.070404000000053Z"  horiz-adv-x="1024" />

    
    <glyph glyph-name="move" unicode="&#58937;" d="M405.8 765.15c-29.7 0-54-24.3-54-54s24.3-54 54-54c29.7 0 54 24.3 54 54s-23.85 54-54 54zM622.7 657.15c29.7 0 54 24.3 54 54s-24.3 54-54 54c-29.7 0-54-24.3-54-54s23.85-54 54-54zM405.8 548.7c-29.7 0-54-24.3-54-54s24.3-54 54-54c29.7 0 54 24.3 54 54s-23.85 54-54 54zM622.7 548.7c-29.7 0-54-24.3-54-54s24.3-54 54-54c29.7 0 54 24.3 54 54s-24.3 54-54 54zM405.8 332.25c-29.7 0-54-24.3-54-54s24.3-54 54-54c29.7 0 54 24.3 54 54s-23.85 54-54 54zM622.7 332.25c-29.7 0-54-24.3-54-54s24.3-54 54-54c29.7 0 54 24.3 54 54s-24.3 54-54 54zM405.8 115.35000000000002c-29.7 0-54-24.3-54-54s24.3-54 54-54c29.7 0 54 24.3 54 54s-23.85 54-54 54zM622.7 115.35000000000002c-29.7 0-54-24.3-54-54s24.3-54 54-54c29.7 0 54 24.3 54 54s-24.3 54-54 54z"  horiz-adv-x="1024" />

    
    <glyph glyph-name="dropdown" unicode="&#58938;" d="M141.249 614.654h741.503v-65.88h-741.503v65.88zM141.249 416.94h741.503v-65.88h-741.503v65.88zM141.249 219.22500000000002h741.503v-65.88h-741.503v65.88z"  horiz-adv-x="1024" />

    
    <glyph glyph-name="erweima" unicode="&#58939;" d="M62 834v-411.923h425.769v411.923h-425.769zM411.615 498.231h-273.461v263.077h273.461v-263.077zM62 345.923v-411.923h425.769v411.923h-425.769zM411.615 10.15300000000002h-273.461v263.077h273.461v-263.077zM567.385 834v-411.923h425.769v411.923h-425.769zM916.999 498.231h-273.461v263.077h273.461v-263.077zM643.539-66h-76.154v411.923h231.923v-10.384c0-55.385 0-110.769 0-162.693 0-10.384 3.461-10.384 10.384-10.384 31.154 0 62.307 0 93.461 0 3.461 0 6.922 0 10.384 0v186.924h76.154v-259.615h-270.001v186.924c-24.231 0-48.462 0-72.693 0 0 0-3.461-3.461-3.461-3.461 0-3.461 0-6.922 0-10.384 0-103.846 0-207.692 0-311.539v-17.307zM723.153-66h117.693v110.769h-117.693zM882.385-66h114.231v110.769h-114.231zM217.769 574.385v110.769h114.231v-34.617c0-24.231 0-45.001 0-69.23 0-3.461 0-10.384-6.922-10.384-34.617 0-69.23 0-103.846 0 0 3.461 0 3.461-3.461 3.461v0zM217.769 86.30600000000004v110.769h27.693c27.693 0 51.923 0 79.615 0 3.461 0 10.384 0 10.384-6.922 0-34.617 0-69.23 0-103.846h-117.693zM726.615 685.154h114.231v-110.769c-6.922 0-13.847 0-20.769 0-27.693 0-55.385 0-86.539 0-6.924 0-10.384 0-10.384 6.922 0 34.614 0 65.769 0 100.385 0 0 3.461 0 3.461 3.461v0z"  horiz-adv-x="1064" />

    
    <glyph glyph-name="renovate" unicode="&#58942;" d="M512 768h-12.8V896L256 736 499.2 576V704H512c211.2 0 384-172.8 384-384s-172.8-384-384-384c-192 0-352 140.8-377.6 326.4H64c32-224 217.6-390.4 448-390.4 249.6 0 448 198.4 448 448s-204.8 448-448 448z"  horiz-adv-x="1024" />

    
    <glyph glyph-name="arrow-line-l" unicode="&#58943;" d="M591.5519999999999-123.072l-536.8319999999998 506.11200000000014 536.7680000000003 508.0959999999999 33.024-34.879000000000005-499.9040000000003-473.1509999999998 499.8399999999999-471.2960000000001z"  horiz-adv-x="1024" />

    
    <glyph glyph-name="arrow-line-r" unicode="&#58944;" d="M432.4480000000002 891.0719999999999l536.8319999999995-506.11200000000025-536.7680000000005-508.0959999999997-33.024 34.879000000000005 499.9040000000005 473.15099999999956-499.8399999999998 471.2960000000002z"  horiz-adv-x="1024" />

    
    <glyph glyph-name="arrow-line-t" unicode="&#58945;" d="M4.928000000000111 304.4480000000003l506.1120000000004 536.8319999999994 508.0959999999996-536.7680000000006-34.879000000000005-33.024-473.1509999999995 499.90400000000056-471.29600000000033-499.8399999999997z"  horiz-adv-x="1024" />

    
    <glyph glyph-name="arrow-line-b" unicode="&#58946;" d="M1019.0719999999999 463.5519999999995l-506.11200000000065-536.8319999999992-508.0959999999993 536.7680000000008 34.879000000000005 33.024 473.15099999999927-499.9040000000008 471.2960000000005 499.8399999999996z"  horiz-adv-x="1024" />

    
    <glyph glyph-name="user" unicode="&#58947;" d="M512.224256 831.488c17.268736 0 34.382848-1.933312 51.350528-5.801984 16.968704-3.869696 32.89088-9.079808 47.773696-15.629312 14.886912-6.549504 28.131328-13.990912 39.74144-22.327296 11.610112-8.332288 20.687872-16.6656 27.237376-25.003008 15.475712-19.05152 26.78784-40.034304 33.93536-62.95552 7.1424-22.920192 12.201984-44.8 15.178752-65.639424 2.97472-23.811072 4.462592-47.9232 4.462592-72.332288 4.169728-2.97472 7.443456-6.844416 9.827328-11.604992 2.3808-4.169728 4.313088-9.52832 5.803008-16.0768 1.487872-6.549504 1.639424-14.584832 0.448512-24.111104-1.190912-12.502016-3.720192-22.472704-7.589888-29.915136-3.869696-7.440384-8.187904-13.248512-12.950528-17.411072-5.356544-4.76672-11.012096-8.039424-16.96768-9.826304-2.973696-10.121216-5.951488-19.64544-8.930304-28.57472-2.972672-7.740416-6.398976-15.330304-10.268672-22.770688-3.869696-7.442432-8.183808-13.248512-12.947456-17.417216-11.314176-8.930304-20.538368-16.520192-27.684864-22.771712-7.143424-6.250496-11.905024-16.815104-14.2848-31.700992-1.787904-8.930304-2.38592-18.010112-1.787904-27.235328 0.596992-9.228288 3.127296-18.456576 7.589888-27.681792 4.462592-9.229312 11.312128-18.010112 20.54144-26.346496 9.228288-8.333312 22.173696-15.773696 38.843392-22.3232 14.885888-5.952512 31.10912-11.311104 48.67072-16.072704 17.5616-4.765696 34.679808-10.269696 51.345408-16.521216 16.668672-6.254592 31.408128-13.989888 44.207104-23.2192 12.8-9.229312 21.875712-21.879808 27.235328-37.952512 2.977792-9.52832 5.209088-21.282816 6.699008-35.272704 1.487872-13.990912 2.231296-28.131328 2.231296-42.420224s-1.041408-27.681792-3.124224-40.183808c-2.085888-12.505088-5.209088-22.029312-9.377792-28.577792-2.976768-4.168704-11.460608-8.333312-25.450496-12.500992-13.991936-4.168704-31.254528-8.187904-51.792896-12.0576-20.540416-3.8656-43.460608-7.291904-68.762624-10.2656-25.302016-2.977792-50.752512-5.508096-76.352512-7.589888-25.6-2.086912-50.15552-3.725312-73.672704-4.916224-23.513088-1.189888-43.904-1.782784-61.172736-1.782784-17.262592 0-37.354496 0.592896-60.274688 1.782784-22.921216 1.190912-46.583808 2.829312-70.99392 4.916224-24.408064 2.081792-48.669696 4.462592-72.779776 7.1424-24.112128 2.679808-45.991936 5.508096-65.635328 8.481792-19.648512 2.978816-36.318208 5.956608-50.010112 8.931328-13.692928 2.977792-22.324224 5.952512-25.894912 8.930304-5.957632 4.760576-10.568704 19.349504-13.845504 43.758592-3.272704 24.406016-1.933312 55.9616 4.018176 94.656512 2.978816 22.029312 11.759616 38.848512 26.34752 50.453504 14.582784 11.609088 31.551488 20.8384 50.896896 27.685888 19.349504 6.844416 39.442432 12.946432 60.280832 18.305024 20.8384 5.358592 39.29088 13.097984 55.364608 23.2192 12.505088 7.740416 22.029312 15.1808 28.577792 22.3232 6.549504 7.146496 11.312128 14.28992 14.28992 21.43232 2.973696 7.146496 4.462592 14.587904 4.462592 22.32832 0 7.739392-0.299008 16.370688-0.891904 25.893888-1.190912 13.696-5.95456 24.558592-14.288896 32.596992-8.332288 8.035328-17.560576 16.222208-27.681792 24.55552-4.760576 4.168704-8.930304 9.975808-12.500992 17.417216-3.571712 7.440384-6.848512 15.030272-9.826304 22.770688-2.97472 8.930304-5.952512 18.453504-8.931328 28.57472-4.164608 1.189888-8.333312 3.2768-12.500992 6.249472-3.571712 2.97984-7.441408 7.146496-11.609088 12.50304-4.164608 5.358592-7.735296 13.099008-10.714112 23.218176-3.570688 10.121216-4.911104 19.349504-4.020224 27.682816 0.892928 8.337408 2.531328 15.479808 4.911104 21.431296 2.381824 6.549504 6.25152 12.8 11.609088 18.756608-0.592896 22.622208 0.598016 45.244416 3.571712 67.866624 2.381824 19.050496 6.699008 39.590912 12.949504 61.6192 6.250496 22.025216 15.629312 41.672704 28.130304 58.93632 11.312128 16.67072 23.9616 30.217216 37.952512 40.63232 13.990912 10.4192 28.279808 18.60608 42.86464 24.559616 14.58688 5.952512 29.171712 9.970688 43.757568 12.053504C484.393984 830.446592 498.532352 831.488 512.224256 831.488L512.224256 831.488zM512.224256 831.488"  horiz-adv-x="1024" />

    
    <glyph glyph-name="mass" unicode="&#58948;" d="M186.76474 129.41112099999998l-104.535873 0c-9.956873 0-17.859152 8.398995-17.317282 18.536491 2.280372 39.511399 10.476165 132.171275 40.549985 174.843586 45.291352 64.527759 194.960533 42.333642 236.91035 100.042863 4.538166 6.276668 5.418706 23.232703 5.418706 36.350487 0 4.899414-2.077171 9.618203-5.757375 12.914583-35.831195 32.173568-60.170217 88.460378-60.689509 142.850642-1.219209 106.703356 14.336993 195.163734 124.675398 195.163734 59.967015 0 91.440667-27.635402 107.53874-70.488336-20.997486-8.218371-39.353354-20.094369-54.909556-35.831195-25.355029-25.513075-41.949817-59.605768-51.071306-104.016581-6.299246-30.954359-9.076333-67.666093-8.55704-115.395864 0.361247-36.192442 8.398995-73.423469 23.074657-108.058032 11.875998-27.951493 27.793447-52.990431 46.510561-73.446047-3.680205-2.077171-8.940865-4.538166-16.45932-7.157208-17.813997-6.276668-40.549985-10.814834-64.685805-15.736826-61.547471-12.417868-131.313313-26.393615-169.42488-80.783878C205.481854 181.34038899999996 195.186312 158.243154 186.76474 129.41112099999998M959.088416-21.996560000000045c0.519293-10.837412-8.060325-20.116947-18.897738-20.116947L237.655422-42.11350700000003c-10.814834 0-19.394453 9.256956-18.852582 20.116947 2.438418 43.01098 11.537329 143.731181 44.072144 190.219165 49.310226 70.127089 211.89399 46.013847 257.546589 108.757949 5.057459 6.841117 5.937999 25.377607 5.937999 39.714601 0 5.418706-2.280372 10.498743-6.299246 14.133792-38.992107 34.973233-65.385721 96.182035-65.905014 155.26851-1.219209 115.915156 15.714248 212.097191 135.693434 212.097191 116.253825 0 134.0904-95.301495 134.0904-210.336111 0-60.328262-26.574238-121.875733-65.72439-157.029589-3.860828-3.477003-6.1412-8.55704-6.321824-13.795123-0.338669-14.336993 0.541871-33.03153 5.59933-40.05327 46.149314-62.744102 203.856242-40.188737 256.169335-108.757949C947.889756 122.750628 956.808043 21.17246499999999 959.088416-21.996560000000045"  horiz-adv-x="1024" />

    
    <glyph glyph-name="masses" unicode="&#58949;" d="M933.53697 396.851717v-210.74101h-48.094384c-7.342545 19.625374-15.830626 35.996444-25.942626 49.119677-36.898909 48.575354-100.70497 61.578343-156.744404 73.376323-22.390949 4.573091-43.641535 9.029818-60.435394 15.168647-7.22101 2.587152-12.278949 5.176889-15.769859 7.041292 17.697616 19.38101 32.92703 43.099798 44.060444 69.886708 13.966222 32.805495 21.249293 68.499394 21.249293 103.293414 0 53.15103-3.369374 114.006626-27.689373 162.82505-10.77398 21.308768-27.869091 45.145212-55.016728 62.301091 12.940929 46.710949 42.556768 77.77099 105.398303 77.77099 98.778505 0 113.948444-79.937939 113.948445-176.307717 0-50.504404-22.512485-102.270707-55.797657-131.704243-3.312485-3.009939-5.179475-7.284364-5.179474-11.616969-0.118949-11.97899 0.243071-27.689374 4.816161-33.58901 27.932444-37.259636 103.837737-38.405172 161.201131-56.821657v-0.002586zM162.45204 233.725414c35.935677 51.224566 101.606141 64.28703 159.454384 76.024243 22.693495 4.455434 43.941495 8.908283 60.855596 14.809212 6.983111 2.468202 11.918222 4.694626 15.349657 6.681858-17.696323 19.382303-32.384 42.85802-43.760485 69.162667-13.785212 32.625778-21.308768 67.656404-21.79103 101.726384-0.541737 45.085737 2.288485 79.396202 8.12606 108.529778 8.547556 41.896081 24.198465 73.797818 47.974142 97.815272 7.885576 8.186828 16.733091 15.049697 26.123636 20.948041C401.541818 776.374303 372.528485 807.434343 310.948848 807.434343c-101.788444 0-116.112808-80.840404-115.150868-177.932929 0.541737-49.479111 22.993455-101.006222 55.919192-130.319515 3.370667-2.950465 5.236364-7.284364 5.236363-11.858747 0-11.97899-0.782222-27.567838-4.995878-33.105455-27.269172-37.200162-103.775677-38.043152-161.501091-55.859717v-212.005495h48.215919c6.741333 18.782384 14.747152 34.310465 23.77697 47.375515l0.002585-0.002586z m698.130101-210.19798c0.479677-10.233535-7.705859-18.779798-17.817858-18.779798H181.955879c-10.233535 0-18.298828 8.60703-17.758384 18.779798 2.346667 40.450586 10.895515 135.196444 41.413818 178.835394 46.348929 65.97301 199.360646 43.279515 242.21996 102.270707 4.875636 6.440081 5.657859 23.837737 5.657858 37.259637 0 5.055354-2.104889 9.870222-5.837575 13.361131-36.77996 32.866263-61.579636 90.41196-62.121374 146.090667C384.446707 610.2975349999999 400.338101 700.767677 513.261253 700.767677c109.491717 0 126.165333-89.509495 126.165333-197.858263 0-56.702707-24.919919-114.610424-61.697293-147.657697-3.551677-3.250424-5.838869-8.246303-5.898344-12.940929-0.301253-13.362424 0.540444-31.119515 5.175596-37.740606 43.398465-58.989899 191.838384-37.863434 241.017536-102.269414 32.085333-42.675717 40.392404-138.264566 42.55806-178.773334"  horiz-adv-x="1024" />

    
    <glyph glyph-name="user-round" unicode="&#58950;" d="M1024 384C1024 666.768 794.784 896 512 896S0 666.768 0 384c0-149.056 63.744-283.2 165.408-376.768 8.72-11.168 21.408-21.696 37.568-31.408C288.88-89.29600000000005 395.904-128 512-128c122.032 0 234.064 42.768 322.032 114.032 6.288 4.576 11.84 9.296 16.656 14.144C956.912 93.98400000000004 1024 231.12 1024 384zM48 384C48 640.2719999999999 255.744 848 512 848c256.288 0 464-207.728 464-464 0-113.168-40.56-216.848-107.872-297.376-14.32 73.44-70.32 73.744-145.68 89.376-79.344 16.56-149.968 19.52-121.536 125.472 38.256 28.016 46.944 85.264 93.904 104.208 17.68 22.832 13.312 60.24 0 76.528s-21.712 6.144-24.688 17.36c-2.752 59.216 19.968 146.208-20.72 174.224-6.688 4.144-13.024 5.552-20.096 5.552-7.12 0-15.216-1.392-22.912-1.392-5.12 0-11.056 0.8-15.776 2.768-22.88 8.48-24.096 38.672-49.344 41.44-6.688 0-13.6 0-20.912 0-34.72-23.456-76.336-19.344-112.464-29.6-1.568-0.4-3.744-0.784-5.12-1.584-21.312-6.704-34.16-19.328-42.624-35.712-11.44-22.688-13.808-53.44-13.808-87.792-0.192-20.16 0.4-42.064 0.4-64.336-17.968-9.472-25.28-29.168-25.664-49.696-0.4-11.84 1.184-24.464 4.72-34.752 5.712-19.136 23.504-24.048 38.096-41.824 17.152-21.088 29.008-49.728 44-65.504 5.936-5.552 11.664-9.472 19.344-11.056 0-23.088 0-45.776 0-68.656-5.936-7.696-12.256-14.208-19.344-19.728-64.72-54.448-196.528-30.976-238.944-112.096-5.28-10.56-7.744-14.032-9.408-17.424C90.064 163.51999999999998 48 268.81600000000003 48 384z"  horiz-adv-x="1024" />

    
    <glyph glyph-name="calendar" unicode="&#58952;" d="M890.12736 750.327808L846.738432 750.327808l0 12.89216c0 38.643712-31.466496 70.234112-69.922816 70.234112l-1.031168 0c-38.458368 0-69.922816-31.5904-69.922816-70.234112l0-12.89216L319.162368 750.327808l0 12.89216c0 38.643712-31.465472 70.234112-69.922816 70.234112l-1.062912 0c-38.45632 0-69.922816-31.5904-69.922816-70.234112l0-12.89216-43.295744 0c-38.458368 0-69.922816-31.622144-69.922816-70.206464l0-671.446016c0-38.644736 31.465472-70.23616 69.922816-70.23616l755.16928 0c38.458368 0 69.922816 31.591424 69.922816 70.23616L960.050176 680.121344C960.050176 718.7056640000001 928.585728 750.327808 890.12736 750.327808zM733.830144 763.220992c0 23.222272 18.792448 42.138624 41.954304 42.138624l1.031168 0c23.130112 0 41.954304-18.917376 41.954304-42.138624l0-124.926976c0-23.22432-18.824192-42.139648-41.954304-42.139648l-1.031168 0c-23.161856 0-41.954304 18.915328-41.954304 42.139648L733.830144 763.220992zM206.22336 763.220992c0 23.222272 18.792448 42.138624 41.954304 42.138624l1.062912 0c23.098368 0 41.954304-18.917376 41.954304-42.138624l0-124.926976c0-23.22432-18.855936-42.139648-41.954304-42.139648l-1.062912 0c-23.161856 0-41.954304 18.915328-41.954304 42.139648L206.22336 763.220992zM890.12736-5.404672000000005l-755.16928 0c-7.584768 0-13.984768 6.524928-13.984768 14.08L120.973312 502.350848l783.137792 0 0-493.67552C904.111104 1.1202560000000403 897.712128-5.404672000000005 890.12736-5.404672000000005zM223.755264 401.800192l129.024 0 0-63.488-129.024 0 0 63.488ZM449.035264 401.800192l128 0 0-63.488-128 0 0 63.488ZM673.291264 401.800192l125.952 0 0-63.488-125.952 0 0 63.488ZM223.755264 272.77619200000004l129.024 0 0-62.464-129.024 0 0 62.464ZM449.035264 272.77619200000004l128 0 0-62.464-128 0 0 62.464ZM673.291264 272.77619200000004l125.952 0 0-62.464-125.952 0 0 62.464ZM223.755264 146.82419200000004l129.024 0 0-65.536-129.024 0 0 65.536ZM449.035264 146.82419200000004l128 0 0-65.536-128 0 0 65.536ZM673.291264 146.82419200000004l125.952 0 0-65.536-125.952 0 0 65.536Z"  horiz-adv-x="1024" />

    
    <glyph glyph-name="page" unicode="&#58954;" d="M577.469084 842.387965c0-2.930749 0-5.27719 0-7.623631 0-89.525989-0.01228-179.051979 0.005117-268.577968 0.00614-30.614252 20.75879-51.248198 51.462069-51.249221 89.525989-0.00307 179.051979-0.005117 268.577968-0.008186 2.204202 0 4.408403 0 7.407714 0 0-2.046612 0-3.838422 0-5.630231 0.00307-178.028673 0.01842-356.057345-0.00614-534.087041-0.004093-27.003004-19.62599-47.756677-46.542013-49.429783-2.040473-0.12689-4.088108-0.166799-6.133697-0.166799-226.968291-0.007163-453.937606-0.00921-680.905898-0.00307-23.106254 0.001023-40.681538 10.633175-48.323589 30.145577-2.366907 6.0416-3.777023 12.885472-3.78214 19.364023-0.183172 272.500301-0.170892 545.000602-0.137123 817.499879 0.00307 28.616758 21.248953 49.750077 49.835012 49.755194 134.203538 0.021489 268.407076 0.010233 402.611637 0.010233C573.235666 842.387965 574.932308 842.387965 577.469084 842.387965zM512.512676 449.541739c-59.33641 0-118.67282 0.021489-178.008206-0.016373-13.148461-0.008186-19.003819-5.990434-19.009959-19.102057-0.004093-8.696056-0.008186-17.392112 0.00614-26.087145 0.024559-14.984273 5.387707-20.382213 20.296255-20.384259 65.814961-0.00614 131.630946-0.002047 197.445908-0.002047 51.833529 0 103.668081-0.00614 155.50161 0.001023 14.170744 0.002047 19.724227 5.607718 19.750833 19.896142 0.014326 7.331989 0.001023 14.663978 0.002047 21.994943 0 1.534959 0.00614 3.068895 0.007163 4.603855 0.005117 13.162788-5.801123 19.074428-19.005866 19.081591C630.502951 449.559135 571.507302 449.541739 512.512676 449.541739zM511.983627 318.558545c-49.622164 0-99.244328 0.001023-148.865469-0.001023-10.401908-0.001023-20.806885 0.145309-31.204699-0.072655-9.748015-0.204661-16.161075-6.442736-16.347317-15.960507-0.216941-11.079336-0.207731-22.169929 0.021489-33.248242 0.174985-8.42488 4.919033-14.238282 12.567223-15.815197 2.472308-0.509606 5.083785-0.476861 7.631818-0.476861 75.541487-0.023536 151.082974-0.020466 226.623437-0.021489 42.119283 0 84.237543-0.007163 126.356826 0.00614 14.165628 0.004093 19.716041 5.633301 19.726274 19.926842 0.00614 7.673773 0.002047 15.346523 0.004093 23.020296 0 1.364067 0.00921 2.728134 0.008186 4.092201-0.01842 12.498662-5.931083 18.524912-18.49626 18.533099C630.66668 318.57901100000004 571.325154 318.558545 511.983627 318.558545zM512.088004 187.57535199999995c-58.646702 0-117.29238 0.001023-175.939081-0.004093-1.874697 0-3.756557 0.039909-5.621021-0.113587-8.585539-0.707105-14.672164-6.626931-14.900362-15.244192-0.302899-11.413957-0.288572-22.846334-0.032746-34.262338 0.191358-8.541537 5.14109-13.95892 13.527085-15.440667 2.495844-0.441045 5.081739-0.5137 7.625678-0.5137 116.610858-0.022513 233.221716-0.01842 349.832574-0.01535 1.704828 0 3.414773-0.057305 5.112438 0.052189 10.983145 0.707105 16.71366 6.750751 16.788361 17.790178 0.062422 9.205663-0.001023 18.412348 0.019443 27.618011 0.032746 14.608719-5.4225 20.13048-19.962657 20.131503C629.722168 187.57842200000005 570.904575 187.57535199999995 512.088004 187.57535199999995zM643.393539 822.397678c6.751774-5.626137 12.896728-9.994632 18.162662-15.246239 69.427232-69.240991 138.76339-138.574079 208.002334-208.003358 5.334495-5.348821 9.770528-11.593036 15.393595-18.345834-81.421404 0-161.290453 0-241.558591 0C643.393539 660.792047 643.393539 740.795149 643.393539 822.397678z"  horiz-adv-x="1024" />

    
    <glyph glyph-name="writing" unicode="&#58955;" d="M62-6.995999999999981h1007.998v-56.124h-1007.998v56.124zM62 31.754999999999995l264.137 74.992-188.667 187.513-75.47-262.505zM767.475 545.393l-188.67 187.516-415.077-412.522 188.667-187.497 415.08 412.504zM855.163 702.907l-117.923 117.189c-19.537 19.42-52.267 18.363-73.108-2.342l-56.61-56.243 188.67-187.515 56.606 56.26c20.841 20.707 21.899 53.227 2.364 72.651z"  horiz-adv-x="1147" />

    
    <glyph glyph-name="plug-ins" unicode="&#58956;" d="M733.909 631.2c0 0-175.415-8.442-237.668-11.239-38.476-1.757-59.403 30.891-25.462 64.632 26.082 25.861 35.579 33.163 31.126 81.455-5.106 55.3-60.796 73.275-106.505 72.761-47.812-0.565-100.148-25.702-115.563-71.297-10.138-29.901-9.843-60.045 16.38-79.244 14.307-10.491 45.973-25.963 10.453-54.269-19.168-15.289-212.173 2.847-212.173 2.847s-8.503-164.668-2.452-211.576c3.459-26.954 37.042-39.567 59.047-10.413 33.943 44.928 127.788 15.614 132.536-72.587 4.992-92.534-94.373-106.795-115.584-70.702-19.798 33.731-76.355 42.122-78.806-0.898-3.794-66.985 27.769-280.124 27.769-280.124s126.861-29.781 184.038-20.622c26.561 4.301 38.754 49.846 14.135 71.235-22.646 19.652-27.395 124.709 90.793 112.642 92.472-9.443 77.027-89.605 53.497-104.249-22.634-14.037-21.557-57.783 25.483-70.214 64.365-17.056 259.611 25.003 259.611 25.003s-25.797 157.256-17.164 208.215c9.223 54.562 72.207 21.64 80.076 11.219 50.935-67.429 156.563-30.57 156.563 82.616 0 164.839-150.839 136.815-165.034 97.218-15.689-43.604-67.61-32.427-73.252-5.635-13.261 62.582 8.156 233.228 8.156 233.228z"  horiz-adv-x="1024" />

    
    <glyph glyph-name="message" unicode="&#58957;" d="M524.377 834c-223.822 0-405.249-172.699-405.249-385.789 0-130.218 72.246-292.047 215.817-349.086l-42.847-165.126 336.129 141.743c173.42 43.742 301.407 193.692 301.407 372.468 0.001 213.09-181.428 385.789-405.255 385.789v0zM630.745 384.191v106.795h107.063v-106.795h-107.063zM460.272 384.148v106.611h106.522v-106.611h-106.522zM289.822 384.191v106.795h106.432v-106.795h-106.432zM289.822 384.191z"  horiz-adv-x="1053" />

    
    <glyph glyph-name="product" unicode="&#58959;" d="M929.192 538.448l-198.984-198.984c-14.063-14.063-35.859-14.063-49.922 0l-198.281 198.984c-14.063 14.063-14.063 35.859 0 49.922l198.984 198.281c14.063 14.063 35.859 14.063 49.922 0l198.281-198.984c14.063-13.359 14.063-35.859 0-49.219zM417.317-41.629999999999995h-281.25c-19.688 0-35.156 15.469-35.156 35.156v281.25c0 19.688 15.469 35.156 35.156 35.156h281.25c19.688 0 35.156-15.469 35.156-35.156v-281.25c0-19.688-15.469-35.156-35.156-35.156zM417.317 380.245h-281.25c-19.688 0-35.156 15.469-35.156 35.156v281.25c0 19.688 15.469 35.156 35.156 35.156h281.25c19.688 0 35.156-15.469 35.156-35.156v-281.25c0-19.688-15.469-35.156-35.156-35.156zM557.942 309.933h281.25c19.688 0 35.156-15.469 35.156-35.156v-281.25c0-19.688-15.469-35.156-35.156-35.156h-281.25c-19.688 0-35.156 15.469-35.156 35.156v281.25c0 19.688 15.469 35.156 35.156 35.156z"  horiz-adv-x="1024" />

    
    <glyph glyph-name="page-list" unicode="&#58960;" d="M62.3 384l89.7 50 360-150 360 150 89.7-50-449.7-199.85-449.7 199.85zM62.3 633.999l449.7 199.85 449.7-199.85-449.7-199.85-449.7 199.85zM512 34l360 150 89.7-50-449.7-199.85-449.7 199.85 89.7 50 360-150z"  horiz-adv-x="1024" />

    
    <glyph glyph-name="set-up" unicode="&#58961;" d="M866.287 300.40099999999995h74.619v188.346h-74.619c-75.692 0-93.717 43.72-40.34 97.15l52.839 52.839-133.199 133.146-52.786-52.786c-53.483-53.483-97.256-35.352-97.097 40.234 0 0.215-0.108 0.322-0.108 0.483v74.188h-188.261v-74.887c-0.215-75.424-43.826-93.449-97.231-40.019l-52.813 52.786-133.144-133.144 52.786-52.839c53.457-53.43 35.324-97.15-40.234-97.15h-74.698v-188.346h74.7c75.559 0 93.69-43.72 40.234-97.204l-52.786-52.786 133.146-133.199 52.813 52.839c53.403 53.377 97.016 35.352 97.231-40.019v-74.939h188.264v74.19c0 0.162 0.108 0.323 0.108 0.483-0.161 75.584 43.612 93.663 97.097 40.287l52.786-52.839 133.199 133.199-52.839 52.786c-53.381 53.482-35.357 97.202 40.334 97.202zM501.453 229.75199999999995c-91.008 0-164.795 73.814-164.795 164.795s73.787 164.795 164.795 164.795c90.981 0 164.795-73.814 164.795-164.795s-73.814-164.795-164.795-164.795z"  horiz-adv-x="1000" />

    
    <glyph glyph-name="upload" unicode="&#58962;" d="M832.625 513.375l-320.625 320.625-320.625-320.625h258.75v-388.125h123.75v388.125zM832.625 322.125v-258.75h-641.25v258.75h-129.375v-388.125h900v388.125z"  horiz-adv-x="1024" />

    
    <glyph glyph-name="exit" unicode="&#58963;" d="M962 384l-225 225v-168.75h-365.625c-15.532 0-28.125-12.593-28.125-28.125v-56.25c0-15.532 12.593-28.125 28.125-28.125h365.625v-168.75l225 225zM597.254 159h-56.25c-15.533 0-28.125-12.593-28.125-28.125v-85.254h-337.5v675h337.5v-84.375c0-15.533 12.593-28.125 28.125-28.125h56.25c15.532 0 28.125 12.592 28.125 28.125v168.75c0 15.532-12.593 28.125-28.125 28.125h-508.008c-14.561 0-26.367-11.806-26.367-26.367v-847.266c0-14.561 11.806-26.367 26.367-26.367h453.516c2.301 0 4.521 0.325 6.648 0.879h47.844c15.532 0 28.125 12.593 28.125 28.125v168.75c0 15.532-12.593 28.125-28.125 28.125z"  horiz-adv-x="1024" />

    
    <glyph glyph-name="view" unicode="&#58964;" d="M389.814682 374.95806600000003c0-15.917528 3.167133-31.834033 9.257851-46.539966 6.089695-14.71105 15.105023-28.201296 26.366508-39.461757 11.257391-11.257391 24.746614-20.271696 39.45664-26.362414 14.705933-6.094812 30.622438-9.256828 46.544059-9.256828 15.918551 0 31.835056 3.162016 46.540989 9.256828 14.710027 6.090718 28.200272 15.105023 39.461757 26.362414 11.257391 11.260461 20.271696 24.750707 26.362414 39.461757 6.094812 14.705933 9.261944 30.623461 9.261944 46.539966 0 15.922644-3.167133 31.839149-9.261944 46.544059-6.090718 14.71105-15.105023 28.201296-26.362414 39.458687-11.261485 11.261485-24.75173 20.275789-39.461757 26.366508-14.705933 6.093788-30.623461 9.256828-46.540989 9.256828-15.921621 0-31.838126-3.163039-46.544059-9.256828-14.710027-6.090718-28.199249-15.105023-39.45664-26.366508-11.261485-11.256368-20.276812-24.746614-26.366508-39.458687C392.981814 406.797215 389.814682 390.880711 389.814682 374.95806600000003L389.814682 374.95806600000003zM389.814682 374.95806600000003M949.098591 404.345374c0 0-0.50449 11.582803-107.727537 111.803365-153.264663 132.538619-289.87911 151.568021-391.489322 138.993634-101.611236-12.574387-178.074721-67.286476-184.188976-70.687946-48.258097-26.847461-121.659851-98.547457-146.130172-124.038014-24.464181-25.485441-38.401612-36.363186-46.554292-53.015448-19.37221-39.759539 7.136537-79.518055 7.136537-79.518055l67.623144-67.969021c0 0 152.249543-168.409594 352.070544-168.409594s294.637484 85.832877 334.73676 117.092835c40.099277 31.266098 89.37147 88.020706 114.523313 121.660874C966.772113 367.98218799999995 949.098591 404.345374 949.098591 404.345374L949.098591 404.345374zM511.43974 170.75424499999997c-112.780623 0-204.207915 91.426269-204.207915 204.203822 0 112.781646 91.427292 204.207915 204.207915 204.207915 112.778576 0 204.203822-91.426269 204.203822-204.207915C715.643562 262.180514 624.218316 170.75424499999997 511.43974 170.75424499999997L511.43974 170.75424499999997zM511.43974 170.75424499999997"  horiz-adv-x="1024" />

    
    <glyph glyph-name="share" unicode="&#58988;" d="M782.791111 252.01777800000002c-47.786667 0-91.022222-22.755556-118.328889-59.164445l-282.168889 147.911111c4.551111 13.653333 4.551111 27.306667 4.551111 40.96 0 15.928889-2.275556 29.582222-6.826666 43.235556L614.4 591.075556c20.48-13.653333 43.235556-22.755556 70.542222-22.755556 65.991111 0 118.328889 52.337778 118.328889 118.328889S750.933333 802.702222 684.942222 802.702222s-118.328889-52.337778-118.328889-118.328889c0-11.377778 2.275556-22.755556 6.826667-34.133333L343.608889 486.4c-27.306667 25.031111-61.44 40.96-102.4 40.96-81.92 0-147.911111-65.991111-147.911111-147.911111s65.991111-147.911111 147.911111-147.911111c40.96 0 77.368889 15.928889 104.675555 43.235555L637.155556 122.31111099999998c0-6.826667-2.275556-13.653333-2.275556-20.48 0-81.92 65.991111-147.911111 147.911111-147.911111s147.911111 65.991111 147.911111 147.911111-65.991111 150.186667-147.911111 150.186667z"  horiz-adv-x="1024" />

    
    <glyph glyph-name="bar-chart" unicode="&#58965;" d="M72.0855 795.6685c0 1.3107 0.4997 2.6204 1.4991 3.6209 1.0004 0.9994 2.3101 1.4991 3.6209 1.4991h32.392192c1.3107 0 2.6204-0.4997 3.6209-1.4991 0.9994-1.0004 1.4991-2.3101 1.4991-3.6209v-790.685696h861.740032c1.3097 0 2.6214-0.4997 3.6198-1.5002 1.0004-0.9994 1.5002-2.3101 1.5002-3.6198v-32.392192c0-1.3097-0.4997-2.6214-1.5002-3.6198-0.9994-1.0004-2.3101-1.5002-3.6198-1.5002H72.085504V795.66848zM384.724 785.4285c0 3.9311 1.4991 7.8623 4.4995 10.8605 2.9993 2.9993 6.9304 4.4995 10.8605 4.4995H539.89376c3.9311 0 7.8623-1.4991 10.8605-4.4995 2.9993-2.9993 4.4995-6.9304 4.4995-10.8605v-723.6014080000001H384.723968V785.42848zM171.562 572.2665c0 3.9311 1.4991 7.8623 4.4995 10.8605 2.9993 2.9993 6.9304 4.4995 10.8605 4.4995h139.809792c3.9311 0 7.8623-1.4991 10.8605-4.4995 2.9993-2.9993 4.4995-6.9304 4.4995-10.8605v-510.440448H171.561984V572.266496zM597.887 359.10350000000005c0 3.9311 1.5002 7.8623 4.4995 10.8605s6.9304 4.4995 10.8605 4.4995h139.809792c3.9311 0 7.8623-1.5002 10.8605-4.4995s4.4995-6.9304 4.4995-10.8605v-297.27744H597.886976V359.10348799999997zM811.049 145.94150000000002c0 3.9311 1.5002 7.8623 4.4995 10.8605s6.9304 4.4995 10.8605 4.4995h139.809792c3.9311 0 7.8623-1.5002 10.8605-4.4995s4.4995-6.9304 4.4995-10.8605v-84.11648H811.04896V145.9415039999999z"  horiz-adv-x="1024" />

    
    <glyph glyph-name="grid" unicode="&#58966;" d="M77.7605 818.218v-869.129216h869.129216V818.217984H77.760512zM355.8861-16.14639999999997H112.529408V227.2061440000001h243.356672V-16.14643199999989zM355.8861 261.975H112.529408V505.33068799999995h243.356672V261.97504000000004zM355.8861 540.0924H112.529408V783.45216h243.356672V540.092416zM634.0065-16.14639999999997H390.64780800000005V227.2061440000001h243.359744V-16.14643199999989zM634.0065 261.975H390.64780800000005V505.33068799999995h243.359744V261.97504000000004zM634.0065 540.0924H390.64780800000005V783.45216h243.359744V540.092416zM912.1249-16.14639999999997H668.772352V227.2061440000001h243.352576V-16.14643199999989zM912.1249 261.975H668.772352V505.33068799999995h243.352576V261.97504000000004zM912.1249 540.0924H668.772352V783.45216h243.352576V540.092416z"  horiz-adv-x="1024" />

    
    <glyph glyph-name="area-chart" unicode="&#58969;" d="M664.9546755843161 587.9395683087802l-305.9093511686321 203.93956830878022-305.9093511686321-356.8942438930963 0-254.92445973870613 0-203.93956830878022 917.7280548004346 0L970.8640267529481 536.9546755843161 970.8640267529481 689.9093511686322 664.9546755843161 587.9395683087802zM919.8791353230222 27.105756106903527L104.12086467697787 27.105756106903527l0 127.46222922208393 265.1214380246914 219.2350350904889 280.41690610093826-91.77280586840493 25.4924463622321-10.196978285985184 20.393956571970367 15.29546807624691 224.3335248807506 152.95467558431605L919.8791353230222 27.105756106903527zM664.9546755843161 333.01510857007406l-305.9093511686321 101.96978415439011-254.92445973870613-214.1365465947654 0 193.74258872825678 265.1214380246914 305.9093511686321 270.21992781495305-178.44712194654815 20.393956571970367-15.29546807624691 25.4924463622321 10.196978285985184L919.8791353230222 618.5305031667358l0-117.26525093609875L664.9546755843161 333.01510857007406z"  horiz-adv-x="1024" />

    
    <glyph glyph-name="line-chart" unicode="&#58971;" d="M898.75 89.16666666666674L139.375 89.16666666666674 139.375 328.51041666666674l162.1125 162.1125C312.0625 485.7854166666666 323.7625 482.91666666666663 336.25 482.91666666666663s24.131249999999998 2.8687499999999995 34.762499999999996 7.706250000000001l113.56875-113.56875C479.6875 366.47916666666674 476.875 354.7229166666667 476.875 342.29166666666674c0-46.575 37.8-84.375 84.375-84.375s84.375 37.8 84.375 84.375c0 12.43125-2.8687499999999995 24.1875-7.706250000000001 34.762499999999996l279 279c12.149999999999999 12.09375 12.149999999999999 31.724999999999998 0 43.87500000000001-12.09375 12.09375-31.724999999999998 12.09375-43.87500000000001 0L593.3125 420.2541666666666C583.4125 424.36041666666654 572.6125 426.66666666666663 561.25 426.66666666666663S539.03125 424.36041666666654 529.13125 420.2541666666666L414.2125 535.2291666666665C418.31875 545.0729166666666 420.625 555.9291666666666 420.625 567.2916666666666c0 46.575-37.8 84.375-84.375 84.375s-84.375-37.8-84.375-84.375c0-11.3625 2.30625-22.218750000000004 6.4125-32.062499999999986L139.375 416.26041666666663 139.375 736.0416666666667c0 15.525000000000002-12.6 28.125-28.125 28.125s-28.125-12.6-28.125-28.125l0-384.35625000000005c-0.73125-3.7687500000000003-0.73125-7.5375000000000005 0-11.30625L83.125 61.04166666666674c0-15.525000000000002 12.6-28.125 28.125-28.125l787.5 0c15.525000000000002 0 28.125 12.6 28.125 28.125S914.2750000000001 89.16666666666674 898.75 89.16666666666674zM561.25 370.41666666666674c15.525000000000002 0 28.125-12.6 28.125-28.125S576.7750000000001 314.16666666666674 561.25 314.16666666666674s-28.125 12.6-28.125 28.125S545.66875 370.41666666666674 561.25 370.41666666666674zM336.25 595.4166666666666c15.525000000000002 0 28.125-12.6 28.125-28.125S351.775 539.1666666666666 336.25 539.1666666666666s-28.125 12.6-28.125 28.125S320.66875000000005 595.4166666666666 336.25 595.4166666666666z"  horiz-adv-x="1024" />

    
    <glyph glyph-name="pie-chart" unicode="&#58972;" d="M575.488 432.128L575.488 833.5360000000001c221.184 0 401.408-179.2 401.408-401.408L575.488 432.128 575.488 432.128zM917.504 343.03999999999996l-1.024 0c-15.36-207.872-188.416-371.712-399.36-371.712-221.184 0-401.408 179.2-401.408 401.408 0 211.968 163.84 384 371.712 399.36l0 1.024 59.392 0 0-371.712 371.712 0L918.528 343.03999999999996 917.504 343.03999999999996zM486.4 343.03999999999996L486.4 712.704C311.296 697.344 174.08 550.912 174.08 372.736 174.08 184.32000000000005 327.68 30.720000000000027 516.096 30.720000000000027c179.2 0 325.632 137.216 339.968 312.32L486.4 343.03999999999996 486.4 343.03999999999996zM486.4 343.03999999999996"  horiz-adv-x="1024" />

    
    <glyph glyph-name="dendrogram" unicode="&#58973;" d="M933.875 236.92031250000002l-84.375 0L849.5 383.39531250000005c0 31.092187499999998-25.185937499999998 56.278124999999996-56.25 56.278124999999996L533.09375 439.6734375l0 91.40625L610.4375 531.0796875c15.525000000000002 0 28.125 12.5859375 28.125 28.125l0 112.5c0 15.525000000000002-12.6 28.125-28.125 28.125L413.5625 699.8296875c-15.525000000000002 0-28.125-12.6-28.125-28.125l0-112.5c0-15.5390625 12.6-28.125 28.125-28.125l77.34375 0 0-91.40625L230.75 439.6734375c-31.0640625 0-56.25-25.185937499999998-56.25-56.278124999999996l0-146.47500000000002L90.125 236.92031250000002c-15.525000000000002 0-28.125-12.5859375-28.125-28.125l0-112.5c0-15.525000000000002 12.6-28.125 28.125-28.125l196.875 0c15.525000000000002 0 28.125 12.6 28.125 28.125l0 112.5c0 15.5390625-12.6 28.125-28.125 28.125l-70.3125 0 0 118.35000000000001c0 31.0640625 11.1234375 42.215624999999996 42.1875 42.215624999999996l232.03125 0 0-160.56562499999998L413.5625 236.92031250000002c-15.525000000000002 0-28.125-12.5859375-28.125-28.125l0-112.5c0-15.525000000000002 12.6-28.125 28.125-28.125l196.875 0c15.525000000000002 0 28.125 12.6 28.125 28.125l0 112.5c0 15.5390625-12.6 28.125-28.125 28.125l-77.34375 0L533.09375 397.4859375 765.125 397.4859375c31.0640625 0 42.1875-11.1515625 42.1875-42.215624999999996l0-118.35000000000001-70.3125 0c-15.525000000000002 0-28.125-12.5859375-28.125-28.125l0-112.5c0-15.525000000000002 12.6-28.125 28.125-28.125l196.875 0c15.525000000000002 0 28.125 12.6 28.125 28.125l0 112.5C962 224.33437500000002 949.4 236.92031250000002 933.875 236.92031250000002z"  horiz-adv-x="1024" />

    
    <glyph glyph-name="map" unicode="&#58975;" d="M511.927424 820.569269c153.304857 0 278.063126-124.709885 278.063126-278.063126 0-74.245322-28.957853-144.087696-81.478737-196.511813l-196.584389-196.584389-196.584389 196.584389c-52.496692 52.496692-81.478737 122.290682-81.478737 196.511813C233.864298 695.859384 358.622567 820.569269 511.927424 820.569269L511.927424 820.569269zM511.927424 896c-195.157059 0-353.493857-158.264222-353.493857-353.493857 0-97.614818 39.529768-185.96409 103.566056-249.927802l249.927802-249.855226 249.927802 249.927802c64.06048 63.963712 103.566056 152.312984 103.566056 249.927802C865.421281 737.808354 707.084483 896 511.927424 896L511.927424 896 511.927424 896M511.927424 896M893.871102 223.77622399999996l-55.302967-54.407862c36.21546-23.006615 57.649594-48.722737 57.649594-73.471177 0-70.15687-164.312228-148.539029-384.217728-148.539029-219.9055 0-384.217728 78.382158-384.217728 148.539029 0 26.998299 24.893593 55.230391 67.592516 79.809488l-50.101682 58.157626C86.752599 196.390852 52.35154 148.92610100000002 52.35154 95.96975999999995c0-127.63712 197.576262-223.96976 459.64846-223.96976 262.072198 0 459.64846 96.260064 459.64846 223.96976C971.575884 144.18446400000005 943.222831 188.02041199999996 893.871102 223.77622399999996L893.871102 223.77622399999996M893.871102 223.77622399999996M436.496692 564.448308c0-19.764884 8.12852-39.384615 22.087318-53.343413 13.958798-13.958798 33.602722-22.087318 53.343413-22.087318 19.764884 0 39.384615 8.12852 53.343413 22.087318 13.958798 13.958798 22.087318 33.57853 22.087318 53.343413 0 19.740692-8.12852 39.384615-22.087318 53.343413-13.958798 13.958798-33.57853 22.087318-53.343413 22.087318-19.740692 0-39.384615-8.12852-53.343413-22.087318C444.625213 603.832924 436.496692 584.1890000000001 436.496692 564.448308L436.496692 564.448308M436.496692 564.448308"  horiz-adv-x="1024" />

    
    <glyph glyph-name="meter-diagram" unicode="&#58976;" d="M886.35392 468.22912c-21.316608 49.876992-49.985536 92.952576-86.151168 129.084416-36.05504 36.088832-79.096832 64.795648-129.11616 86.112256-49.876992 21.316608-102.252544 32.014336-157.017088 32.014336-54.726656 0-107.098112-10.697728-157.051904-32.014336-49.871872-21.316608-92.947456-50.024448-129.079296-86.112256-36.092928-36.093952-64.795648-79.169536-86.112256-129.084416-21.35552-49.985536-32.0512-102.3232-32.0512-157.083648 0-55.980032 10.843136-108.906496 32.493568-158.855168 21.644288-49.90976 51.709952-93.53728 90.264576-130.879488l563.07712 0c38.5536 37.342208 68.619264 81.006592 90.264576 130.879488 21.686272 49.985536 32.492544 102.875136 32.492544 158.855168C918.368256 365.872128 907.671552 418.24256 886.35392 468.22912L886.35392 468.22912zM493.380608 628.846592l41.49248 0 0-74.02496-41.49248 0L493.380608 628.846592 493.380608 628.846592zM270.427136 327.389184l-73.065472 13.488128 7.238656 40.609792 73.070592-13.52192L270.427136 327.389184 270.427136 327.389184zM340.851712 484.402176l-47.854592 56.897536 31.606784 26.133504 47.744-56.859648L340.851712 484.402176 340.851712 484.402176zM574.974976 233.99424c-3.933184-16.575488-13.12256-29.514752-27.528192-38.848512-14.444544-9.299968-30.104576-11.983872-46.8992-8.122368-16.8704 3.895296-29.809664 13.08672-38.775808 27.529216-12.606464 21.05856-12.973056 42.41408-0.954368 64.060416l-69.465088 169.694208 124.524544-138.969088c22.269952-0.621568 39.3984-10.253312 51.453952-28.850176C576.333824 266.046464 578.909184 250.57075199999997 574.974976 233.99424L574.974976 233.99424zM687.368192 484.402176l-31.608832 26.170368 47.853568 56.859648 31.56992-26.133504L687.368192 484.402176 687.368192 484.402176zM757.716992 327.389184l-7.168 40.609792 73.066496 13.563904 7.20384-40.576L757.716992 327.389184 757.716992 327.389184z"  horiz-adv-x="1024" />

    
    <glyph glyph-name="chart-d" unicode="&#58977;" d="M412.024519 294.63569299999995c7.579629 1.300622 14.389732 5.399987 19.079544 11.499915l116.276237 150.693094 141.80261-102.473883c7.241938-5.240351 16.400528-7.081279 25.091468-4.980431 8.68787 2.060939 16.056698 7.800663 20.168342 15.739473L924.594501 731.779821c7.810896 15.058974 1.932002 33.597189-13.129019 41.408085-15.07023 7.807826-33.587979 1.917676-41.409109-13.131065L696.304098 425.011043l-137.073912 99.055017c-13.419637 9.67843-32.159444 7.019881-42.309618-6.139837l-127.153982-164.813696-177.183422-30.700209L212.583165 615.8023900000001c0 15.159258-12.279674 27.439956-27.438932 27.439956-15.150048 0-27.429723-12.280698-27.429723-27.439956l0-532.936845c0-15.158235 12.280698-27.438932 27.429723-27.438932l712.181205 0 0 27.438932 0 27.438932L897.325437 567.205579 780.229532 341.37520400000005c-11.021008-21.239743-30.728862-36.638455-54.078663-42.159192-6.049786-1.479701-12.530384-2.238994-19.008936-2.238994-17.409508 0-34.079166 5.398964-48.198745 15.600303l-101.255125 73.195046-85.757153-111.153566c-12.559037-16.359596-30.767747-27.319206-51.186799-30.840402l-208.160947-36.038798 0 52.341089L412.024519 294.63569299999995z"  horiz-adv-x="1024" />

    
    <glyph glyph-name="meeting" unicode="&#58978;" d="M831.055616 234.1409L624.606661 234.1409c-9.221012 0-16.765849 7.543813-16.765849 16.765849 0 9.221012 7.544837 16.765849 16.765849 16.765849l206.448956 0c14.670118 0 26.406416 11.735275 26.406416 26.405393L857.462033 629.3949660000001c0 14.670118-11.736299 26.406416-26.406416 26.406416L471.110731 655.801383c-9.221012 0-16.765849 7.544837-16.765849 16.765849 0 9.221012 7.544837 16.765849 16.765849 16.765849l359.944885 0c33.112142 0 59.938114-26.824949 59.938114-59.938114l0-335.316975C890.99373 260.96584900000005 864.167758 234.1409 831.055616 234.1409L831.055616 234.1409zM281.931091 539.2785289999999c-51.554166 0-93.050256 41.914622-93.050256 93.051279 0 51.135634 41.914622 93.050256 93.050256 93.050256 51.55519 0 93.051279-41.914622 93.051279-93.050256C374.98237 581.193151 333.48628 539.2785289999999 281.931091 539.2785289999999L281.931091 539.2785289999999zM281.931091 692.266899c-32.692586 0-59.518558-26.824949-59.518558-59.518558 0-32.69361 26.825972-59.518558 59.518558-59.518558 32.69361 0 59.519582 26.824949 59.519582 59.518558C341.450672 665.44195 315.044256 692.266899 281.931091 692.266899L281.931091 692.266899zM309.175595 42.61993600000005l-53.231365 0c-29.758768 0-54.489008 23.472598-56.58474 53.231365l-10.0591 153.233963c-26.824949 8.382924-46.52564 33.531698-48.201815 62.871933l-7.963369 105.350396c-1.257643 23.053042 6.706749 44.848441 22.633486 62.033845 15.927761 16.765849 38.142715 25.986861 60.776202 25.986861l269.866311 0c31.435966 0 56.58474-25.568329 56.58474-56.58474 0-30.178323-24.310685-55.327096-54.489008-56.58474l-103.465466-21.795399-19.281135-274.092565C363.664603 66.092533 338.935386 42.61993600000005 309.175595 42.61993600000005L309.175595 42.61993600000005zM216.544895 471.796602c-13.83203 0-26.824949-5.449106-36.465516-15.508205-9.640568-10.060123-14.250562-23.472598-13.83203-36.885072l7.963369-105.350396c0.838088-18.022469 14.670118-32.274054 32.274054-33.95023l14.250562-1.257643 11.736299-180.478468c0.838088-12.154831 10.897188-21.795399 23.053042-21.795399l53.231365 0c12.154831 0 22.214954 9.640568 23.053042 21.795399l20.957311 300.079426 133.224234 26.824949c12.993942 0.419556 23.053042 10.478655 23.053042 23.053042 0 12.993942-10.478655 23.053042-23.053042 23.053042l-269.446755 0L216.543871 471.796602 216.544895 471.796602zM618.400309 374.726799c2.351558-2.350534 5.876847-3.52529 9.402137-3.52529 0.391926 0 1.567705 0 2.351558 0 4.310166 0.390903 7.835456 3.134387 9.795087 7.052626l44.272319 88.542592 39.178301-39.962154c2.742461-2.742461 7.052626-4.310166 10.577916-3.52529 4.310166 0.390903 7.443529 2.742461 9.795087 5.876847l66.8792 131.24823c3.52529 5.876847 1.958608 14.496156-4.701069 18.021445-5.876847 3.526313-14.496156 1.958608-18.022469-4.701069l-58.650795-116.360148-40.35408 40.744983c-2.742461 2.742461-7.443529 4.310166-10.969842 3.526313-3.52529-0.391926-7.835456-3.134387-9.795087-7.052626l-44.272319-88.543615-13.320377 13.3214c-5.092995 5.091972-13.320377 5.091972-18.413372 0-5.092995-5.092995-5.092995-13.3214 0-18.414395L618.400309 374.726799 618.400309 374.726799z"  horiz-adv-x="1024" />

    
    </font>
</defs>
</svg>
